<?xml version="1.0" encoding="UTF-8" standalone="no"?>
<svg width="1182px" height="588px" viewBox="0 0 1182 588" version="1.1" xmlns="http://www.w3.org/2000/svg" xmlns:xlink="http://www.w3.org/1999/xlink">
    <!-- Generator: Sketch 43.2 (39069) - http://www.bohemiancoding.com/sketch -->
    <title>mid</title>
    <desc>Created with Sketch.</desc>
    <defs>
        <linearGradient x1="97.7260045%" y1="50%" x2="0%" y2="50%" id="linearGradient-1">
            <stop stop-color="#D2C2E0" offset="0%"></stop>
            <stop stop-color="#AB93C0" offset="100%"></stop>
        </linearGradient>
        <linearGradient x1="98.0608259%" y1="62.8432396%" x2="0%" y2="62.8432393%" id="linearGradient-2">
            <stop stop-color="#C6AFD9" offset="0%"></stop>
            <stop stop-color="#6D5D7B" offset="100%"></stop>
        </linearGradient>
        <radialGradient cx="69.4523454%" cy="5.88512447%" fx="69.4523454%" fy="5.88512447%" r="112.142048%" gradientTransform="translate(0.694523,0.058851),scale(0.502523,1.000000),rotate(128.567747),translate(-0.694523,-0.058851)" id="radialGradient-3">
            <stop stop-color="#FAF4FF" offset="0%"></stop>
            <stop stop-color="#83649F" offset="100%"></stop>
        </radialGradient>
    </defs>
    <g id="Page-1" stroke="none" stroke-width="1" fill="none" fill-rule="evenodd">
        <g id="Artboard" transform="translate(-54.000000, -42.000000)">
            <g id="mid" transform="translate(54.000000, 42.000000)">
                <g id="mid-base">
                    <path d="M514.037447,197.231986 C514.865874,197.231986 515.537447,195.441125 515.537447,193.231986 C515.537447,191.022847 514.865874,189.231986 514.037447,189.231986 C513.20902,189.231986 512.537447,191.022847 512.537447,193.231986 C512.537447,195.441125 513.20902,197.231986 514.037447,197.231986 Z" id="Oval-3" fill="#DDC7F0"></path>
                    <polygon id="Path-350" fill="#BF9EDB" points="1105.75125 494.557325 1107.46915 415.501089 1163.9066 424.783223 1162.72392 500.005325"></polygon>
                    <polygon id="Path-184" fill="#9881AC" points="934.72986 537.687554 933.268209 473.20362 1099.65663 499.253554 1097.77818 568.519256 970.503199 538.247092"></polygon>
                    <polygon id="Path-185" fill="#B6A6C4" points="931.307965 473.061073 1100.55181 499.746939 1100.55181 494.790017 931.307965 468.057511"></polygon>
                    <polygon id="Path-186" fill="#AB93C1" points="1099.08778 494.296857 1100.7383 332.406026 933.545295 338.689362 932.205201 468.550978"></polygon>
                    <polygon id="Path-187" fill="#C6AFDA" points="1098.39764 569.993456 1100.49162 251.593606 1111.5567 251.593606 1105.09533 557.57786 1107.31266 564.958953"></polygon>
                    <polygon id="Path-188" fill="#C4B2D4" points="1101.39656 332.049869 1101.02793 323.913683 931.214335 331.660451 931.214335 338.333205"></polygon>
                    <polygon id="Path-189" fill="#B399C9" points="1100.21861 323.777872 1100.86441 306.327549 934.193861 315.923009 934.193861 331.052074"></polygon>
                    <polygon id="Path-190" fill="#C4B2D4" points="933.065799 315.990915 1103.2605 306.213911 1103.2605 298.525347 933.435814 310.230035"></polygon>
                    <polygon id="Path-191" fill="#E7E7E7" points="1110.88088 332.251244 1100 331.811702 1100.19091 324 1110.88088 324.610851"></polygon>
                    <polygon id="Path-191-Copy" fill="#DDCCEB" points="1106.8482 499.411398 1099 499.634435 1099 494.610851 1106.8482 494.418822"></polygon>
                    <polygon id="Path-192" fill="#E8E8E8" points="1101.19594 305.927841 1111.99686 306.397497 1112.20413 298.35047 1101.19594 298.35047"></polygon>
                    <polygon id="Path-193" fill="#B399C9" points="1100.49044 298.704715 934.949846 309.855118 935.291146 287.96336 1101.01326 269.935832"></polygon>
                    <path d="M933.976432,288.079566 L1102.26518,270.245061 L1114.58146,270.288962 C1114.58146,270.288962 1117.0428,267.946913 1116.78799,265.462661 C1116.53317,262.978409 1113.01055,262.245445 1113.01055,262.245445 L1101.10847,261.831244 L931.865343,282.74458 L933.976432,288.079566 Z" id="Path-194" fill="#C4B2D4"></path>
                    <polygon id="Path-195" fill="#B399C9" points="931.706916 282.572792 936.916878 275.052275 985.462388 268.518587 985.462388 275.550461"></polygon>
                    <polygon id="Path-196" fill="#B399C9" points="1039.62824 269.242007 1100.84792 261.85224 1100.84792 251.593606 1039.54426 261.201353"></polygon>
                    <polygon id="Path-197" fill="#D2C2E0" points="986.309219 275.429822 986 171.723038 993.321052 168 993.541513 274.646276"></polygon>
                    <polygon id="Path-197-Copy" fill="#D2C2E0" points="1032.30922 270.429822 1032.8766 156.081905 1040.33751 153.333861 1039.54151 269.646276"></polygon>
                    <polygon id="Path-198" fill="#C4B2D4" points="937.410826 275.151993 937.410826 268.308162 985.864386 260.844217 985.864386 268.300402"></polygon>
                    <polygon id="Path-199" fill="#B399C9" points="994.086099 274.569069 1032.88209 269.79358 1032.88209 155.658479 994.03695 168.424739"></polygon>
                    <polygon id="Path-200" fill="#84649F" points="993.394338 275.239218 993 168.573677 995.190659 168 995.708412 274.96122"></polygon>
                    <polygon id="Path-201" fill="#B399C9" points="968.176166 263.66845 968.176166 238.35207 985.925984 233.598289 986.174142 260.64336"></polygon>
                    <polygon id="Path-202" fill="#84649F" points="967.789637 238.559238 985.991753 236.198161 985.991753 225.190604 967.789637 230.744231"></polygon>
                    <polygon id="Path-203" fill="#B399C9" points="967.920689 230.744633 975.839003 221.176866 986.073794 220.377664 986.073794 225.208404"></polygon>
                    <path d="M976.102641,220.967762 L976.059557,214.879575 L982.609358,208.677268 C982.609358,208.677268 981.32889,203.009151 986.124042,202.680892 C986.124042,205.658563 986.14584,220.334067 986.14584,220.334067 L976.102641,220.967762 Z" id="Path-204" fill="#84649F"></path>
                    <polygon id="Path-205" fill="#C4B2D4" points="984.774064 172.551332 1041.32372 152.920801 1041.67685 147.561253 984.813045 169.060594"></polygon>
                    <polygon id="Path-206" fill="#84649F" points="993.091524 169.848582 1033.0911 155.774092 1033.0911 157.382589"></polygon>
                    <polygon id="Path-207" fill="#B399C9" points="1039.63554 261.272959 1055.27751 259.009083 1055.27751 214.880769 1043.65773 215.684238 1043.65773 208.826174 1040.00426 209.153295"></polygon>
                    <polygon id="Path-208" fill="#E4DAEC" points="988.944521 167.522657 989.500973 123.413855 996.985231 120 997.656434 164.148228"></polygon>
                    <polygon id="Path-208-Copy" fill="#E4DAEC" points="1027.29086 152.908495 1027.29086 109.467206 1034.60828 106.388367 1034.60828 150.275032"></polygon>
                    <polygon id="Path-209" fill="#C4B2D4" points="983.774469 117.694416 1038.36334 97.1110098 1038.37315 101.651611 983.774469 120.727291"></polygon>
                    <polygon id="Path-210" fill="#B091CD" points="983.792004 120.67802 986.762204 124.13039 1036.47912 105.629114 1038.08087 101.735326"></polygon>
                    <polygon id="Path-211" fill="#B399C9" points="992.474482 114.271081 992.749738 83.7031529 1039.48432 65.8327522 1039.48432 97.2091761"></polygon>
                    <polygon id="Path-212" fill="#C4B2D4" points="991.025957 84.883499 1039.83262 65.9962925 1039.83262 61.0640284 991.194785 81.9764099"></polygon>
                    <polygon id="Path-213" fill="#CAB1E1" points="1040.25226 208.80738 1048.35301 208.539679 1047.95053 153.212887 1040.73747 152.97493"></polygon>
                    <polygon id="Path-214" fill="#CAB1E1" points="1048.1197 153.36161 1082.17911 156.336069 1082.26184 207.656637 1048.1197 207.656637"></polygon>
                    <polygon id="Path-215" fill="#DFD2EA" points="1041.27542 148.068171 1084.83654 153.866247 1084.83654 155.709367 1083.06922 156.978143 1041.27542 153.171325"></polygon>
                    <polygon id="Path-216" fill="#CAB1E1" points="1082.12955 153.419177 1082.12955 107.010795 1040.70788 105.306697 1040.77004 147.8229"></polygon>
                    <polygon id="Path-217" fill="#DFD2EA" points="1038.08087 101.606908 1083.01943 104.276429 1083.01943 100.757451 1038.08087 97.1483691"></polygon>
                    <polygon id="Path-218" fill="#CAB1E1" points="1039.52148 97.1742928 1077.50629 100.25427 1077.15777 68.27802 1039.56529 66.2040701"></polygon>
                    <polygon id="Path-219" fill="#CABED4" points="1038.32644 101.685943 1083.04301 104.230769 1082.23885 106.92938 1038.94443 105.497231"></polygon>
                    <polygon id="Path-220" fill="#B49EC8" points="1036.45436 105.55484 1038.30644 101.452171 1039.27486 105.359634"></polygon>
                    <polygon id="Path-221" fill="#B49EC8" points="1034.7394 106.334714 1036.91476 105.493422 1040.71034 105.50342 1040.76319 147.890842 1034.93175 150.188089"></polygon>
                    <polygon id="Path-222" fill="#DFD2EA" points="1039.90877 65.9812301 1078.47617 68.3221281 1078.64417 64.389787 1039.90877 61.1664013"></polygon>
                    <polygon id="Path-223" fill="#B399C9" points="1002.76082 77.0833942 1002.3572 65.9603255 1038.6353 50.6922255 1038.6353 62.0114971"></polygon>
                    <polygon id="Path-224" fill="#CAB1E0" points="1038.59982 50.7049505 1075.65123 57.3276077 1075.65123 63.9935576 1039.88797 61.1020552 1038.78628 61.5706806"></polygon>
                    <path d="M1021.28184,57.8781904 L1020.6684,24.8789675 C1020.6684,24.8789675 1029.60301,19.5835774 1040.36642,19.0714173 C1051.12984,18.5592572 1058.35763,24.5221818 1058.35763,24.5221818 L1057.85813,53.8672288 L1039.25694,50.8748327 L1021.28184,57.8781904 Z" id="Path-225" fill="url(#linearGradient-1)"></path>
                    <path d="M1019.87585,25.5555349 C1019.87585,25.5555349 1030.1071,18.9813863 1039.83621,19.0508649 C1049.56531,19.1203435 1059.14125,25.1286626 1059.14125,25.1286626 L1059.14125,19.4051004 C1059.14125,19.4051004 1052.69659,13.414151 1039.49724,13.4025712 C1026.29788,13.3909914 1019.57109,20.2530551 1019.57109,20.2530551 L1019.87585,25.5555349 Z" id="Path-226" fill="url(#linearGradient-2)"></path>
                    <path d="M1020.93091,19.086835 C1020.93091,19.086835 1022.28697,0.382842132 1039.44723,0.550291432 C1056.60749,0.717740733 1057.82008,18.0779059 1057.82008,18.0779059 C1057.82008,18.0779059 1049.48525,13.0972299 1039.03942,13.3479335 C1028.5936,13.5986371 1020.93091,19.086835 1020.93091,19.086835 Z" id="Path-227" fill="url(#radialGradient-3)"></path>
                    <polygon id="Path-228" fill="#B399C9" points="997.741063 164.188315 1027.50205 152.903807 1027.31332 108.823198 997.187098 120.279956"></polygon>
                    <polygon id="Path-229" fill="#AF97C5" points="484.87151 480.787018 563.921981 465.094012 563.178638 422.132491 484.87151 438.436959"></polygon>
                    <polygon id="Path-230" fill="#CDC0D9" points="483.298819 438.756304 564.99105 422 564.99105 418.454031 483.298819 432.410615"></polygon>
                    <polygon id="Path-231" fill="#BEA3D6" points="563.085229 418.794993 563.085229 404.927319 484.945632 418.625965 484.945632 432.0911"></polygon>
                    <polygon id="Path-232" fill="#D9CDE3" points="563.862699 404.602241 483.768598 418.814928 483.768598 414.249332 563.880152 401.961316"></polygon>
                    <polygon id="Path-233" fill="#BFABD2" points="483.202152 414.503489 481.625571 327.326513 559.786492 321.961052 561.921413 402.228091"></polygon>
                    <polygon id="Path-234" fill="#C6BBD0" points="481.79528 327.49892 558.918365 321.843768 559.294575 314.39156 481.200261 318.916669"></polygon>
                    <polygon id="Path-235" fill="#D7CDE0" points="559.140838 314.426241 556.899381 305.466252 482.249669 311.296244 481.457765 318.792412"></polygon>
                    <polygon id="Path-236" fill="#F2EEF5" points="556.846669 305.616083 552.40971 304.401291 552.340913 270.245753 560.505181 261.771896 479.83838 261.550896 482.728812 266.735673 482.613364 311.30506"></polygon>
                    <polygon id="Path-237" fill="#D9D0E0" points="561.803796 261.868002 475.889034 261.578521 475.889034 257.733811 561.986501 259.571141"></polygon>
                    <polygon id="Path-238" fill="#AC9DB8" points="551.758684 259.34508 551.758684 253.387257 483 254 483 257.987307"></polygon>
                    <polygon id="Path-239" fill="#D8D0E0" points="481.703919 253.894935 553.822794 253.962992 553.822794 252.095284 481.661109 252.308234"></polygon>
                    <polygon id="Path-240" fill="#CFC4DA" points="538.96398 242.018463 538.96398 252.26067 496.024215 252.26067 496.17728 242.181274"></polygon>
                    <polygon id="Path-241" fill="#C6B9D2" points="495.872825 242.830016 543.195494 243.279243 529.89364 233.118066 499.931755 234.360427"></polygon>
                    <polygon id="Path-242" fill="#AE99C1" points="500.028385 234.409055 490.75297 238.495843 486.764941 245.083117 495.801065 242.976736"></polygon>
                    <polygon id="Path-243" fill="#BDAACE" points="488.51768 244.743655 494.516268 243.267212 496.139668 242.804427 496.139668 252.069151 488.393927 252.179154"></polygon>
                    <polygon id="Path-244" fill="#ECE0F6" points="523.56209 233.359019 523.868866 214.69109 520.574706 214.811768 520.162943 233.525887"></polygon>
                    <polygon id="Path-244-Copy" fill="#ECE0F6" points="516.433513 233.717579 516.721268 213.573025 513.35863 213.706926 513.000581 233.826633"></polygon>
                    <polygon id="Path-244-Copy-2" fill="#ECE0F6" points="508.614301 234.012882 508.978605 215.710661 505.28152 215.831339 505.28152 234.138929"></polygon>
                    <path d="M503.523481,219.013242 C503.523481,219.013242 508.982958,215.798765 514.64877,215.876264 C520.314583,215.953762 524.620956,218.988561 524.620956,218.988561 C524.620956,218.988561 526.541152,217.522992 526.453287,216.699628 C526.365422,215.876264 521.516653,214 514.659137,214 C507.80162,214 502.283498,216.522417 502.025826,217.24212 C501.768155,217.961823 503.523481,219.013242 503.523481,219.013242 Z" id="Path-245" fill="#D1C0E0"></path>
                    <path d="M502.524429,216.799332 C502.524429,216.799332 508.250696,195.500101 514.000755,195.500101 C519.750814,195.500101 525.477081,215.812823 525.477081,215.812823 C525.477081,215.812823 517.995848,213.942576 514.116281,213.981085 C510.236715,214.019593 502.524429,216.799332 502.524429,216.799332 Z" id="Path-246" fill="#A995BB"></path>
                    <polygon id="Path-247" fill="#896FA0" points="485.022594 480.246124 425.809975 465.840118 425.036965 427.69036 485.022594 438.941862"></polygon>
                    <polygon id="Path-248" fill="#AE95C4" points="485.047694 438.912538 424.772884 427.660303 424.575327 424.973997 484.830845 432.126162"></polygon>
                    <polygon id="Path-249" fill="#9078A4" points="484.755218 432.348781 484.755218 419.216304 425.355521 413.437004 425.355521 425.242965"></polygon>
                    <polygon id="Path-250" fill="#B69ECC" points="484.566865 419.237208 424.814633 413.743835 424.814633 411.06199 484.008191 414.13859"></polygon>
                    <polygon id="Path-251" fill="#A493B3" points="457.81458 412.574956 456.247604 328.57848 481.795974 328.597044 483.362105 413.995107"></polygon>
                    <polygon id="Path-252" fill="#DBCFE7" points="442.126259 411.669536 442.126259 408.029292 457.132773 405.196585 457.358073 412.458509"></polygon>
                    <polygon id="Path-253" fill="#79648C" points="442.459569 411.660254 442.010119 320.458414 424.101399 322.151939 425.211023 410.999542"></polygon>
                    <polygon id="Path-254" fill="#5F4C6F" points="442.621588 408.098218 457.656662 404.89825 456.569856 320.193788 441.780222 320.193788"></polygon>
                    <polygon id="Path-255" fill="#A493B3" points="456.922184 328.771288 481.849631 328.52549 481.279665 313.67646 482.911192 313.803278 482.523615 308.74412 473.94777 301.885296 461.262472 302.448137 453.525189 311.745702 453.525189 317.228897 456.634913 317.228897"></polygon>
                    <polygon id="Path-256" fill="#A493B3" points="461.216221 302.503744 460.350837 263.491356 476.644205 261.146993 477.043385 304.465015 473.90593 301.811631"></polygon>
                    <polygon id="Path-257" fill="#C2B3D0" points="476.806769 304.113807 482.639597 308.841784 483.01729 266.942186 479.652122 261.317674 476.58872 261.317674"></polygon>
                    <polygon id="Path-258" fill="#BEB4C6" points="422.950592 322.460667 442.985352 320.397779 456.845314 320.374313 457.106642 317.229848 442.511762 317.207449 422.450336 319.483666"></polygon>
                    <polygon id="Path-259" fill="#927AA8" points="423.785774 319.035675 423.785774 260.291498 439.755045 257.474141 440.728283 317.559277"></polygon>
                    <polygon id="Path-260" fill="#715A85" points="440.331476 317.666301 453.522198 317.221135 453.659251 311.877433 461.400948 302.656302 460.524167 258.627402 439.742757 257.750621"></polygon>
                    <polygon id="Path-261" fill="#C0B2CE" points="460.138929 263.926826 476.556353 261.311102 476.556353 257.637981 460.09047 261.311102"></polygon>
                    <polygon id="Path-262" fill="#DBCBE9" points="423.92747 260.42884 422.746921 259.424951 422.824334 252.182859 440.557386 248.309724 461.594611 251.071319 461.594611 258.807879 439.841315 257.850885"></polygon>
                    <path d="M590.17143,479.378552 L590.17143,492.04764 L610.31332,496.481123 C610.31332,496.481123 639.767218,484.585753 639.686264,468.417716 C639.605311,452.24968 639.686264,436.834033 639.686264,436.834033 C639.686264,436.834033 639.686264,443.623394 633.851676,450.612757 C628.017087,457.60212 590.17143,479.378552 590.17143,479.378552 Z" id="Path-263" fill="#9983AC"></path>
                    <path d="M634.694551,431.963758 C634.694551,431.963758 642.525615,421.271125 651.251902,422.033352 C659.978189,422.795579 741.513631,420.36446 741.513631,420.36446 C741.513631,420.36446 769.86477,422.60967 771.008826,440.569919 C785.156375,439.718335 809.03536,442.43315 809.03536,442.43315 L809.03536,410.936319 C809.03536,410.936319 638.450505,407.389274 609.252175,414.953075 C601.778314,419.497386 634.694551,431.963758 634.694551,431.963758 Z" id="Path-264" fill="#816F91"></path>
                    <path d="M808.646839,414.473453 C808.646839,414.473453 931.168088,466.763082 932.64678,474.742873 C934.125472,482.722663 934.125472,525.983712 934.125472,525.983712 C934.125472,525.983712 883.901413,455.052239 808.646839,442.338916 L808.646839,414.473453 Z" id="Path-265" fill="#6D5C7B"></path>
                    <polygon id="Path-266" fill="#91859C" points="932.379578 459.947427 806.644866 405.913111 807.071061 347.700884 932.997289 373.204322"></polygon>
                    <polygon id="Path-267" fill="#726281" points="819.467816 350.104599 819.665074 341.884068 933.543847 360.726202 933.058461 373.281961"></polygon>
                    <polygon id="Path-268" fill="#B9A7C9" points="814.50831 340.883006 933.369492 360.859923 933.763268 338.428741"></polygon>
                    <polygon id="Path-269" fill="#564862" points="815.149581 340.809127 933.582264 361.049054 933.582264 363.260995 876.681541 353.08748 815.338712 342.119742"></polygon>
                    <path d="M467.050449,259.82788 L466.635266,199.212698 C466.635266,199.212698 466.959951,195.070745 469.524608,195.070745 C472.089266,195.070745 472.54347,198.610345 472.54347,198.610345 L472.720007,216.377541 L474.70449,215.301467 L474.546583,196.576184 C474.546583,196.576184 474.345788,190.976696 476.864621,190.976696 C477.229157,190.502193 477.635931,187.87556 479.751919,187.87556 C481.867908,187.87556 482.713723,190.881754 482.713723,190.881754 L482.611875,211.250418 L485.476428,211.193501 L485.517185,243.757746 L485.335973,257.896048 L476.477275,257.735528 L467.050449,259.82788 Z" id="Path-270" fill="#F1E7F9"></path>
                    <path d="M479.5,195 C480.880712,195 482,193.432997 482,191.5 C482,189.567003 480.880712,188 479.5,188 C478.119288,188 477,189.567003 477,191.5 C477,193.432997 478.119288,195 479.5,195 Z" id="Oval-4" fill="#C9B7D9"></path>
                    <path d="M469.58613,202.446968 C470.966841,202.446968 472.08613,200.879965 472.08613,198.946968 C472.08613,197.013972 470.966841,195.446968 469.58613,195.446968 C468.205418,195.446968 467.08613,197.013972 467.08613,198.946968 C467.08613,200.879965 468.205418,202.446968 469.58613,202.446968 Z" id="Oval-4" fill="#C9B7D9"></path>
                    <path d="M477.032783,197.940425 C477.032783,197.682736 477.032783,191.687547 477.032783,191.289464 C475.652071,191.289464 475,192.567003 475,194.5 C475,196.432997 475.652071,197.940425 477.032783,197.940425 Z" id="Oval-4-Copy" fill="#C9B7D9"></path>
                    <polygon id="Rectangle-3" fill="#C9B7D9" points="477 196 477.316549 196 477.316549 254 477 254"></polygon>
                    <polygon id="Path-271" fill="#CCC2D5" points="414.868087 466.779337 425.961839 464.80309 425.541395 424.355382 413.430388 426.981979"></polygon>
                    <polygon id="Path-272" fill="#B19BC5" points="414.937374 466.980898 400.976096 462.836292 400.187172 424.769527 413.8902 427.18354"></polygon>
                    <polygon id="Path-273" fill="#E5E5E5" points="400.407102 424.542105 413.63844 427.344036 425.737684 424.475772 425.580252 420.069453 415.799145 419.125748"></polygon>
                    <polygon id="Path-274" fill="#9A78B7" points="374.553813 457.164073 400.708699 457.830947 400.797144 424.352834 412.751339 419.68295 412.751339 413.615639 372.41168 418.088291 372.883091 442.032942 375.459487 442.259361"></polygon>
                    <polygon id="Path-275" fill="#BEACCE" points="412.664663 413.700546 400.945731 409.925723 372.048172 413.810217 372.048172 418.184695"></polygon>
                    <polygon id="Path-276" fill="#B5A0C8" points="425.100881 385.85548 425.37506 420.031422 415.782341 419.166432 413.174989 420.09068 413.017557 413.640403 406.531903 411.665432 406.777779 389.01738"></polygon>
                    <polygon id="Path-277" fill="#C4AADB" points="406.579663 411.782179 406.884797 389.142972 380.069228 389.24999 379.342212 329.711626 368.202594 329.947773 370.127152 413.958804 402.048637 409.772714"></polygon>
                    <polygon id="Path-278" fill="#C9B6DA" points="425.355602 385.496394 388.680211 386.361384 386.871515 330.30509 379.688031 329.448945 380.345176 388.915669 407.267763 389.556893"></polygon>
                    <polygon id="Path-279" fill="#9A78B7" points="387.075958 336.49236 409.619854 336.141738 411.088837 385.750668 388.857949 386.116067"></polygon>
                    <polygon id="Path-280" fill="#BFB3C9" points="809.037172 403.020029 809 387 819.880884 391.202858 819.880884 408.090134"></polygon>
                    <polygon id="Path-280-Copy-3" fill="#BFB3C9" points="822.037172 408.020029 822 392 832.880884 396.202858 832.880884 413.090134"></polygon>
                    <polygon id="Path-280-Copy-6" fill="#BFB3C9" points="835.037172 413.020029 835 397 845.880884 401.202858 845.880884 418.090134"></polygon>
                    <polygon id="Path-280-Copy-9" fill="#BFB3C9" points="848.037172 419.020029 848 403 858.880884 407.202858 858.880884 424.090134"></polygon>
                    <polygon id="Path-280-Copy-12" fill="#BFB3C9" points="861.040646 425.020029 861 409 872.897976 413.202858 872.897976 430.090134"></polygon>
                    <polygon id="Path-280-Copy-15" fill="#BFB3C9" points="875.255823 431.020029 875.215177 415 887.113153 419.202858 887.113153 436.090134"></polygon>
                    <polygon id="Path-280-Copy-18" fill="#BFB3C9" points="889.471 437.020029 889.430354 421 901.32833 425.202858 901.32833 442.090134"></polygon>
                    <polygon id="Path-280-Copy-21" fill="#BFB3C9" points="903.686177 443.020029 903.645531 427 915.543507 431.202858 915.543507 448.090134"></polygon>
                    <polygon id="Path-280-Copy-24" fill="#BFB3C9" points="917.901354 449.020029 917.860708 433 929.758684 437.202858 929.758684 454.090134"></polygon>
                    <polygon id="Path-280-Copy" fill="#BFB3C9" points="809 384.457971 809 369 819.880884 372.661257 819.880884 388.624962"></polygon>
                    <polygon id="Path-280-Copy-4" fill="#BFB3C9" points="822 389.457971 822 374 832.880884 377.661257 832.880884 393.624962"></polygon>
                    <polygon id="Path-280-Copy-7" fill="#BFB3C9" points="835 394.457971 835 379 845.880884 382.661257 845.880884 398.624962"></polygon>
                    <polygon id="Path-280-Copy-10" fill="#BFB3C9" points="848 400.457971 848 385 858.880884 388.661257 858.880884 404.624962"></polygon>
                    <polygon id="Path-280-Copy-13" fill="#BFB3C9" points="861 405.869792 861 388.229897 872.897976 392.407948 872.897976 410.624962"></polygon>
                    <polygon id="Path-280-Copy-16" fill="#BFB3C9" points="875.215177 411.61049 875.215177 393.00868 887.113153 397.414563 887.113153 416.624962"></polygon>
                    <polygon id="Path-280-Copy-19" fill="#BFB3C9" points="889.430354 417.375175 889.430354 397.900436 901.32833 402.14101 901.32833 422.624962"></polygon>
                    <polygon id="Path-280-Copy-22" fill="#BFB3C9" points="903.645531 423.769 903.645531 402.888998 915.543507 406.816819 915.543507 428.624962"></polygon>
                    <polygon id="Path-280-Copy-25" fill="#BFB3C9" points="917.860708 430.457971 917.860708 408.007638 929.758684 411.629909 929.758684 434.624962"></polygon>
                    <polygon id="Path-280-Copy-2" fill="#BFB3C9" points="809 366.457971 809 351 819.880884 353.533953 819.880884 370.075109"></polygon>
                    <polygon id="Path-280-Copy-5" fill="#BFB3C9" points="822 370.457971 822 355 832.880884 357.533953 832.880884 374.075109"></polygon>
                    <polygon id="Path-280-Copy-8" fill="#BFB3C9" points="835 374.596847 835 357.871966 845.880884 360.42712 845.880884 379.075109"></polygon>
                    <polygon id="Path-280-Copy-11" fill="#BFB3C9" points="848 381.07798 848 360.809073 858.880884 363.406214 858.880884 385.075109"></polygon>
                    <polygon id="Path-280-Copy-14" fill="#BFB3C9" points="861 385.624054 861 364.231069 872.897976 366.734177 872.897976 388.955594"></polygon>
                    <polygon id="Path-280-Copy-17" fill="#BFB3C9" points="875.215177 389.454802 875.215177 367.78343 887.113153 370.031646 887.113153 393.722682"></polygon>
                    <polygon id="Path-280-Copy-20" fill="#BFB3C9" points="889.430354 394.492426 889.430354 371.225066 901.32833 373.23455 901.32833 398.001632"></polygon>
                    <polygon id="Path-280-Copy-23" fill="#BFB3C9" points="903.645531 398.830962 903.645531 374.054833 915.543507 376.108031 915.543507 403.021714"></polygon>
                    <polygon id="Path-280-Copy-26" fill="#BFB3C9" points="917.860708 404.700911 917.860708 377.501886 929.758684 379.64785 929.758684 407.598259"></polygon>
                    <path d="M932.559598,473.715335 L932.211773,459.923965 L806.772677,405.835955 L809.199602,414.395575 C809.199602,414.395575 843.987278,429.052583 874.374844,443.207469 C904.762409,457.362355 932.559598,473.715335 932.559598,473.715335 Z" id="Path-281" fill="#F2F2F2"></path>
                    <polygon id="Path-282" fill="#856D9B" points="409.859382 336.120113 413.396222 337.045997 414.792598 385.647956 410.939278 385.808612"></polygon>
                    <polygon id="Path-283" fill="#AF97C4" points="408.589545 336.051355 410.076449 335.989196 413.368712 337.172441 414.962307 385.400107 425.040718 385.558189 424.099802 327.811076 408.692999 327.748601"></polygon>
                    <polygon id="Path-284" fill="#9278A9" points="411.32646 327.747611 411.476204 308.611321 412.983148 308.611321 413.265205 327.634313"></polygon>
                    <polygon id="Path-285" fill="#C9BAD6" points="413.170971 308.669339 417.034414 309.452931 416.936396 327.738205 413.331213 327.738205"></polygon>
                    <polygon id="Path-286" fill="#B3A1C3" points="366.784498 286.551178 388.478278 283.23196 389.721271 336.376333 387.150447 336.714128 386.951194 330.320926 379.718952 329.351905 368.271274 329.681138"></polygon>
                    <polygon id="Path-287" fill="#E0D6E9" points="388.463706 283.133341 400.539512 283.133341 401.760284 336.376571 389.729984 336.376571"></polygon>
                    <polygon id="Path-288" fill="#B5A7C0" points="56.1699172 429.722528 56.4358729 347.158529 77.2222551 347.111211 78.0350636 432.527838"></polygon>
                    <polygon id="Path-289" fill="#B5A7C0" points="84.7578345 417.67346 84.5955643 363.256644 96.1769026 363.069894 96.1769026 421 92.918908 420.883193 92.918908 417.453136"></polygon>
                    <polygon id="Path-290" fill="#B5A7C0" points="93.263131 407.383874 106.391912 407.093434 106.908124 468.304732 95.5185767 465.771326"></polygon>
                    <polygon id="Path-291" fill="#C6B6D2" points="76.9898072 347.166584 100.593416 345.489466 100.593416 424.860092 98.8303191 424.871872 98.852813 364.22245 84.888355 364.22245 84.888355 422.089203 77.6174536 422.089203"></polygon>
                    <polygon id="Path-292" fill="#D5C5E3" points="96.2060129 364.183079 98.9594256 364.245456 98.9594256 416.484072 96.2060129 416.484072"></polygon>
                    <polygon id="Path-293" fill="#9F93A8" points="100.679185 373.008813 106.077354 373.014435 106.077354 407.329167 100.679185 407.329167"></polygon>
                    <polygon id="Path-294" fill="#A596B0" points="55.9881258 347.346643 77.3278644 347.43689 77.5930268 345.673535 55.7589606 346.062913"></polygon>
                    <polygon id="Path-295" fill="#E3D2F0" points="77.3289463 347.49708 100.970253 345.658273 101.264098 344.557298 77.6115939 345.658273"></polygon>
                    <polygon id="Path-296" fill="#C5B6D2" points="18.9046532 336.16826 18.7458029 438.912538 41.6326039 438.116342 41.4090721 337.258098"></polygon>
                    <polygon id="Path-297" fill="#D5C5E3" points="42.0316429 336.228117 42.0316429 340.900678 18.3891993 340.582976 18.3891993 335.082486"></polygon>
                    <polygon id="Path-298" fill="#A496B0" points="18.4948762 335.080797 0.222981828 334.191037 0.0590666069 338.333149 18.5546011 340.646175"></polygon>
                    <polygon id="Path-299" fill="#B5A7C0" points="1.75372451 338.645368 1.59067656 447.367126 13.8123342 445.498145 13.2815611 422.463126 18.8919716 422 18.8919716 340.637502"></polygon>
                    <path d="M1105.88657,521.931136 C1105.88657,521.931136 1110.87201,518.975773 1118.15816,519.960894 C1125.4443,520.946015 1131.12281,528.993997 1131.12281,528.993997 L1131.12281,575.034781 L1140.49709,578.864517 L1140.02195,527.209526 C1140.02195,527.209526 1143.87405,521.606302 1152.25424,523.099348 C1160.63443,524.592394 1161.99112,530.371202 1161.99112,530.371202 L1161.67496,585.527256 L1167.82861,587.749361 L1168.16622,527.672167 C1168.16622,527.672167 1172.55684,520.648603 1181.37202,521.873975 C1181.37202,519.960894 1181.34614,495.395264 1181.34614,495.395264 C1181.34614,495.395264 1174.56209,484.078295 1166.26338,482.767933 C1157.96467,481.45757 1149.29917,495.884944 1149.29917,495.884944 C1149.29917,495.884944 1143.62929,484.157719 1137.84053,482.767933 C1132.05178,481.378147 1122.24433,490.710187 1122.24433,490.710187 C1122.24433,490.710187 1112.49368,478.132159 1106.83858,478.132159 C1106.83858,480.295837 1105.88657,521.931136 1105.88657,521.931136 Z" id="Path-300" fill="#AB93C0"></path>
                    <path d="M1131.13713,567.764826 L1131.13713,575.041431 L1106.2175,567.058322 L1105.76684,521.94625 C1105.76684,521.94625 1110.2196,519.77002 1112.64003,519.77002 L1112.64003,561.309648 L1131.13713,567.764826 Z" id="Path-301" fill="#847095"></path>
                    <path d="M1144.02367,524.051221 C1144.02367,524.051221 1142.40402,524.830121 1141.70701,525.377627 C1141.01,525.925133 1139.82434,527.349817 1139.82434,527.349817 L1140.61231,578.880933 L1144.02367,575.697291 L1144.02367,524.051221 Z" id="Path-302" fill="#847095"></path>
                    <polygon id="Path-303" fill="#AB93C0" points="1108 416.641608 1108.31887 396 1172.31181 404.809344 1172.31181 427.292031"></polygon>
                    <polygon id="Path-304" fill="#AB93C0" points="1107.42845 448.866964 1107.42845 455.779065 1145.90483 462.649243 1146.06361 452.784624"></polygon>
                    <polygon id="Path-305" fill="#BF9EDB" points="1108.52581 396.052941 1175.03166 405.273206 1175.03166 399.789983 1108.52581 393.110213"></polygon>
                    <polygon id="Path-306" fill="#AB93C0" points="1109.18529 371.830471 1127.91148 371.953873 1128.12269 395.076648 1108.70987 393.16946"></polygon>
                    <polygon id="Path-307" fill="#BF9EDB" points="1128.24925 395.185811 1136.75922 389.393845 1137.18084 370.502322 1128.12585 372.057499"></polygon>
                    <polygon id="Path-308" fill="#D1BCE2" points="1109.02636 371.666621 1128.01842 371.867504 1137.02048 370.385993 1114.06648 370.212574"></polygon>
                    <polygon id="Path-309" fill="#D1BCE2" points="1128.53434 395.025586 1164.7006 398.676087 1167.48837 393.429678 1136.78468 389.313866"></polygon>
                    <polygon id="Path-310" fill="#D8D8D8" points="1109.74606 338.87576 1148.40667 338.189956 1141.05169 336.04568 1109.94706 335.787114"></polygon>
                    <polygon id="Path-311" fill="#84649F" points="1043.94232 208.797046 1055.41418 208.178356 1055.41418 215.116649 1043.94232 215.943909"></polygon>
                    <polygon id="Path-312" fill="#C6AFDA" points="1055.52992 208.166782 1092.38571 207.95294 1092.28815 252.787571 1055.35521 258.710664"></polygon>
                    <polygon id="Path-313" fill="#D5C3E3" points="1110.29912 251.586907 1110.14029 231.475404 1107.50314 230.029242 1097.54859 230.086584 1095.21593 231.615891 1095.09551 252.539355 1100.99656 251.756066"></polygon>
                    <polygon id="Path-314" fill="#B299C8" points="1095.31971 252.516419 1101.01089 251.706752 1101.06193 230.006879 1097.83587 229.911118 1095.45848 231.580913"></polygon>
                    <polygon id="Path-315" fill="#A188B6" points="1095.05257 231.842331 1098.07828 230.094393 1107.75342 230.094393 1111.10396 232.114848 1111.02101 221.588419 1107.67594 220.191285 1098.07828 220.080031 1095.05257 221.913241"></polygon>
                    <polygon id="Path-316" fill="#816E92" points="1095.098 231.845662 1098.27593 229.999209 1098.17441 219.941764 1095.016 221.976507"></polygon>
                    <polygon id="Path-317" fill="#B296CA" points="1111.10479 232.201851 1111.04145 221.642879 1107.73857 220.249795 1107.7338 229.951052"></polygon>
                </g>
                <g id="mid-detail" transform="translate(6.000000, 79.000000)">
                    <path d="M1005.83014,73.5441113 C1011.81146,73.2321153 1016.66028,64.3765974 1016.66028,53.7647584 C1016.66028,43.1529195 1011.81146,36.8456749 1005.83014,39.6771334 C999.848819,42.5085919 995,51.3641098 995,59.4564863 C995,67.5488628 999.848819,73.8561074 1005.83014,73.5441113 Z" id="Oval-5" stroke="#6A6A6A" fill="#FFFFFF"></path>
                    <path d="M998.278731,467.306657 L997.603017,420.906299 C997.603017,420.906299 1005.51996,411.194174 1013.03148,412.249094 C1020.543,413.304015 1026.25933,421.888605 1026.25933,421.888605 L1025.54126,473.474815 L998.278731,467.306657 Z" id="Path-318" fill="#7B6D87"></path>
                    <path d="M997.71006,467.07408 L997.71006,421.04951 C997.71006,421.04951 1000.19936,412.160127 1012.07555,412.160127 C1002.50664,415.985859 1003.20035,421.04951 1003.20035,421.04951 L1003.20035,468.45088 L997.71006,467.07408 Z" id="Path-319" fill="#AF9FBD"></path>
                    <polygon id="Path-320" fill="#AB93C0" points="926.252914 406.847073 993.66953 421.253003 993.66953 414.316811 926 402"></polygon>
                    <polygon id="Path-320-Copy" fill="#AB93C0" points="1026.25291 424.847073 1093.66953 439.253003 1093.66953 432.316811 1026 420"></polygon>
                    <polygon id="Path-321" fill="#AF9FBD" points="987.870208 420.076935 987.148871 464.547662 983 463.713426 983.923474 419"></polygon>
                    <polygon id="Path-321-Copy-3" fill="#AF9FBD" points="1083.67857 437.190864 1082.9589 487.506401 1078.90252 486.430975 1079.73183 436"></polygon>
                    <polygon id="Path-321-Copy" fill="#AF9FBD" points="959.206615 413.904707 959.206615 459.366161 955 459.366161 955 413"></polygon>
                    <polygon id="Path-321-Copy-4" fill="#AF9FBD" points="1059.83476 432.046182 1059.83476 481.923163 1055.62815 480.882501 1055.62815 431.145166"></polygon>
                    <polygon id="Path-321-Copy-2" fill="#AF9FBD" points="936.206615 408.982756 936.206615 458.366161 932 458.366161 932 408"></polygon>
                    <polygon id="Path-321-Copy-5" fill="#AF9FBD" points="1035.07555 426.982756 1035.07555 476.059164 1030.86894 475.139662 1030.86894 426"></polygon>
                    <polygon id="Path-322" fill="#C6AFD9" points="926 402 993.64811 414.247201 994.471668 413.701651"></polygon>
                    <polygon id="Path-322-Copy" fill="#C6AFD9" points="1026 420 1093.64811 432.247201 1094.47167 431.701651"></polygon>
                    <polygon id="Path-323" fill="#91809F" points="943 381.336149 943.25275 366 950.728253 366.712781 950.46213 382.496925"></polygon>
                    <polygon id="Path-323-Copy-5" fill="#91809F" points="943 337.336149 943.25275 322 950.728253 322.712781 950.46213 338.496925"></polygon>
                    <polygon id="Path-323-Copy-10" fill="#91809F" points="943 293.336149 943.25275 278 950.438268 277.552005 950.172145 293.336149"></polygon>
                    <polygon id="Path-323-Copy" fill="#91809F" points="970 384.336149 970.25275 369 977.728253 369.712781 977.46213 385.496925"></polygon>
                    <polygon id="Path-323-Copy-6" fill="#91809F" points="970 339.336149 970.25275 324 977.728253 324.712781 977.46213 340.496925"></polygon>
                    <polygon id="Path-323-Copy-11" fill="#91809F" points="970 292.336149 970.25275 277 977.684512 276.322363 977.418389 292.106507"></polygon>
                    <polygon id="Path-323-Copy-2" fill="#91809F" points="1000 388.336149 1000.25275 373 1007.72825 373.712781 1007.46213 389.496925"></polygon>
                    <polygon id="Path-323-Copy-7" fill="#91809F" points="1000 340.336149 1000.25275 325 1007.72825 325.712781 1007.46213 341.496925"></polygon>
                    <polygon id="Path-323-Copy-12" fill="#91809F" points="1000 292.336149 1000.25275 277 1007.52783 276.552005 1007.26171 292.336149"></polygon>
                    <polygon id="Path-323-Copy-3" fill="#91809F" points="1033 392.336149 1033.25275 377 1040.72825 377.712781 1040.46213 393.496925"></polygon>
                    <polygon id="Path-323-Copy-8" fill="#91809F" points="1033 341.336149 1033.25275 326 1040.72825 326.712781 1040.46213 342.496925"></polygon>
                    <polygon id="Path-323-Copy-13" fill="#91809F" points="1033 291.336149 1033.25275 276 1040.67348 275.302211 1040.40736 291.086355"></polygon>
                    <polygon id="Path-323-Copy-4" fill="#91809F" points="1067 396.336149 1067.25275 381 1074.72825 381.712781 1074.46213 397.496925"></polygon>
                    <polygon id="Path-323-Copy-9" fill="#91809F" points="1067 341.336149 1067.25275 326 1074.72825 326.712781 1074.46213 342.496925"></polygon>
                    <polygon id="Path-323-Copy-14" fill="#91809F" points="1067 289.336149 1067.25275 274 1074.68128 273.552005 1074.41516 289.336149"></polygon>
                    <polygon id="Path-324" fill="#9C89AD" points="939 211.457554 939 226.666258 942.635926 226.322786 942.635926 211"></polygon>
                    <polygon id="Path-324-Copy" fill="#9C89AD" points="970 208.457554 970 223.666258 973.635926 223.322786 973.635926 208"></polygon>
                    <polygon id="Path-324-Copy-2" fill="#9C89AD" points="1001 205.457554 1001 220.666258 1004.63593 220.322786 1004.63593 205"></polygon>
                    <polygon id="Path-324-Copy-3" fill="#9C89AD" points="1031 203.457554 1031 218.666258 1034.63593 218.322786 1034.63593 203"></polygon>
                    <polygon id="Path-324-Copy-7" fill="#9C89AD" points="1015 204.457554 1015 219.666258 1018.63593 219.322786 1018.63593 204"></polygon>
                    <polygon id="Path-324-Copy-8" fill="#9C89AD" points="985 207.457554 985 222.666258 988.635926 222.322786 988.635926 207"></polygon>
                    <polygon id="Path-324-Copy-9" fill="#9C89AD" points="954 210.457554 954 225.666258 957.635926 225.322786 957.635926 210"></polygon>
                    <polygon id="Path-324-Copy-4" fill="#9C89AD" points="1063 200.457554 1063 215.666258 1066.63593 215.322786 1066.63593 200"></polygon>
                    <polygon id="Path-324-Copy-5" fill="#9C89AD" points="1047 201.457554 1047 216.666258 1050.63593 216.322786 1050.63593 201"></polygon>
                    <polygon id="Path-324-Copy-6" fill="#9C89AD" points="1079 198.457554 1079 213.666258 1082.63593 213.322786 1082.63593 198"></polygon>
                    <polygon id="Path-325" fill="#9C89AD" points="1002 96.9134108 1011.66264 94 1011.66264 103.263765 1002 105.307003"></polygon>
                    <polygon id="Path-325-Copy" fill="#9C89AD" points="1002 123.913411 1011.66264 121 1011.66264 130.263765 1002 132.307003"></polygon>
                    <polygon id="Path-325-Copy-2" fill="#9C89AD" points="1001 151.913411 1010.60563 150.131587 1010.60563 159.395351 1001 160.307003"></polygon>
                    <polygon id="Path-326" fill="#9C89AD" points="990 13.7894597 1026.83014 0 1026.58827 11.6096826 990.218175 22.271636"></polygon>
                    <polygon id="Path-327" fill="#525252" points="1009.71772 42.4655434 1005.4188 56.5378873 1005.4188 58.4063255"></polygon>
                    <polygon id="Path-328" fill="#373737" points="1005.68912 55.5707704 1011.01144 57.5438474 1005.65266 57.9750865"></polygon>
                    <polygon id="Path-329" fill="#F0F0F0" points="1046 90 1050.87021 90 1050.798 112.551316 1046 112.996051"></polygon>
                    <polygon id="Path-329-Copy-2" fill="#F0F0F0" points="1046 34 1050.87021 34 1050.798 56.5513155 1046 56.9960514"></polygon>
                    <polygon id="Path-329-Copy" fill="#F0F0F0" points="1061 91 1065.87021 91 1065.798 113.551316 1061 113.996051"></polygon>
                    <polygon id="Path-329-Copy-3" fill="#F0F0F0" points="1061 36 1065.87021 36 1065.798 58.953655 1061 59.4063255"></polygon>
                    <polygon id="Path-330" fill="#786C83" points="540.529033 187.195719 540.693944 223.179294 537 223.645041 537 187"></polygon>
                    <polygon id="Path-330-Copy" fill="#786C83" points="529.529033 186.569021 529.693944 224.166584 526 224.645041 526 186.36796"></polygon>
                    <polygon id="Path-330-Copy-2" fill="#786C83" points="518.529033 185.694229 518.693944 225.141165 515 225.645041 515 185.919255"></polygon>
                    <polygon id="Path-330-Copy-3" fill="#786C83" points="507.529033 186.024225 507.693944 226.141165 504 226.645041 504 185.812483"></polygon>
                    <polygon id="Path-330-Copy-4" fill="#786C83" points="496.529033 186.222424 496.693944 227.115745 493 227.645041 493 186"></polygon>
                    <polygon id="Path-330-Copy-5" fill="#786C83" points="485.529033 185.682976 485.693944 228.115745 482 228.645041 482 185.460552"></polygon>
                    <polygon id="Path-331" fill="#D7CCDF" points="518.564431 185.729641 520.61009 186.494857 520.390313 225.503128 518.564431 225.146978"></polygon>
                    <polygon id="Path-331-Copy" fill="#D7CCDF" points="529.043233 186.547501 530.727729 186.682198 530.887991 224.528736 529.179125 224.221603"></polygon>
                    <polygon id="Path-331-Copy-2" fill="#D7CCDF" points="540.510668 187.274965 541.887991 187.703399 542.119973 223.607745 540.724615 223.187519"></polygon>
                    <polygon id="Path-332" fill="#D7CCDF" points="507.520648 186.074292 508.497069 186.129789 508.552566 226.445719 507.687558 226.132555"></polygon>
                    <polygon id="Path-333" fill="#D7CCDF" points="496.520482 186.186538 497.420333 186.779901 497.313511 227.470543 496.724529 227.055147"></polygon>
                    <polygon id="Path-334" fill="#D7CCDF" points="485.563504 185.724825 487.520726 187.313177 487.799047 228.560879 485.721651 228.078719"></polygon>
                    <polygon id="Path-335" fill="#AC98BD" points="486 324.273747 486.011551 312.295697 491.327171 312 491.327171 323.095374"></polygon>
                    <polygon id="Path-335-Copy-5" fill="#AC98BD" points="486 298.273747 486.011551 286.295697 491.327171 286 491.327171 297.095374"></polygon>
                    <polygon id="Path-335-Copy-10" fill="#AC98BD" points="486 270.273747 486.011551 258.295697 491.327171 258 491.327171 269.095374"></polygon>
                    <polygon id="Path-335-Copy" fill="#AC98BD" points="501 322.273747 501.011551 310.295697 506.327171 310 506.327171 321.474758"></polygon>
                    <polygon id="Path-335-Copy-6" fill="#AC98BD" points="501 296.273747 501.011551 284.295697 506.327171 284 506.327171 295.474758"></polygon>
                    <polygon id="Path-335-Copy-11" fill="#AC98BD" points="501 268.273747 501.011551 256.295697 506.327171 256 506.327171 267.474758"></polygon>
                    <polygon id="Path-335-Copy-2" fill="#AC98BD" points="515 321.273747 515.011551 309.295697 520.327171 309 520.327171 320.463723"></polygon>
                    <polygon id="Path-335-Copy-7" fill="#AC98BD" points="515 294.273747 515.011551 282.295697 520.327171 282 520.327171 293.463723"></polygon>
                    <polygon id="Path-335-Copy-12" fill="#AC98BD" points="515 267.273747 515.011551 255.295697 520.327171 255 520.327171 266.463723"></polygon>
                    <polygon id="Path-335-Copy-3" fill="#AC98BD" points="530 320.273747 530.011551 308.295697 535.327171 308 535.327171 319.095374"></polygon>
                    <polygon id="Path-335-Copy-8" fill="#AC98BD" points="530 292.273747 530.011551 280.295697 535.327171 280 535.327171 291.095374"></polygon>
                    <polygon id="Path-335-Copy-13" fill="#AC98BD" points="530 265.273747 530.011551 253.295697 535.327171 253 535.327171 264.095374"></polygon>
                    <polygon id="Path-335-Copy-4" fill="#AC98BD" points="544 319.273747 544.011551 307.295697 549.327171 307 549.327171 318.095374"></polygon>
                    <polygon id="Path-335-Copy-9" fill="#AC98BD" points="544 291.273747 544.011551 279.295697 549.327171 279 549.327171 290.095374"></polygon>
                    <polygon id="Path-335-Copy-14" fill="#AC98BD" points="544 264.273747 544.011551 252.295697 549.327171 252 549.327171 263.095374"></polygon>
                    <polygon id="Path-336" fill="#83758F" points="457 325.984634 461.177014 326.228103 461.081909 315 457 315"></polygon>
                    <polygon id="Path-336-Copy-6" fill="#665971" points="420 322.984634 424.177014 323.228103 424.081909 312 420 312"></polygon>
                    <polygon id="Path-336-Copy-2" fill="#83758F" points="457 298.984634 461.177014 299.228103 461.081909 288 457 288"></polygon>
                    <polygon id="Path-336-Copy-7" fill="#665971" points="420 295.984634 424.177014 296.228103 424.081909 285 420 285"></polygon>
                    <polygon id="Path-336-Copy-4" fill="#83758F" points="457 269.984634 461.177014 270.228103 461.081909 259 457 259"></polygon>
                    <polygon id="Path-336-Copy-8" fill="#665971" points="420 266.984634 424.177014 267.228103 424.081909 256 420 256"></polygon>
                    <polygon id="Path-336-Copy" fill="#83758F" points="466 326.984634 470.177014 327.228103 470.081909 316 466 316"></polygon>
                    <polygon id="Path-336-Copy-9" fill="#665971" points="429 323.984634 433.177014 324.228103 433.081909 313 429 313"></polygon>
                    <polygon id="Path-336-Copy-3" fill="#83758F" points="466 298.984634 470.177014 299.228103 470.081909 288 466 288"></polygon>
                    <polygon id="Path-336-Copy-10" fill="#665971" points="429 295.984634 433.177014 296.228103 433.081909 285 429 285"></polygon>
                    <polygon id="Path-336-Copy-5" fill="#83758F" points="466 269.984634 470.177014 270.228103 470.081909 259 466 259"></polygon>
                    <polygon id="Path-336-Copy-11" fill="#665971" points="429 266.984634 433.177014 267.228103 433.081909 256 429 256"></polygon>
                    <polygon id="Path-337" fill="#9C9C9C" points="436.551365 329.293351 451.796976 330.901852 436.526854 330.207671"></polygon>
                    <polygon id="Path-338" fill="#3B3440" points="441 322.128078 441.016213 310.68552 445.860959 310 445.860959 321.560105"></polygon>
                    <polygon id="Path-338-Copy" fill="#3B3440" points="441 295.128078 441.016213 283.68552 445.860959 283 445.860959 294.560105"></polygon>
                    <polygon id="Path-338-Copy-2" fill="#3B3440" points="441.731435 266.128078 441.747649 256.527811 446.592395 255.952662 446.592395 265.651551"></polygon>
                    <polygon id="Path-339" fill="#6F617B" points="423 187.826132 428.670774 187 428.617068 192.425936 423.289067 193.145445"></polygon>
                    <polygon id="Path-339-Copy" fill="#6F617B" points="423 198.826132 428.670774 198 428.617068 203.425936 423.289067 204.145445"></polygon>
                    <polygon id="Path-339-Copy-2" fill="#6F617B" points="423 209.826132 428.670774 209 428.617068 214.425936 423.289067 215.145445"></polygon>
                    <polygon id="Path-339-Copy-3" fill="#6F617B" points="423 223.826132 428.670774 223 428.617068 228.425936 423.289067 229.145445"></polygon>
                    <polygon id="Path-340" fill="#BCA8CE" points="496.220534 363.405848 536.794327 355.398179 533.263889 350.896127 498.452411 357.809487"></polygon>
                    <polygon id="Path-341" fill="#BCA8CE" points="502.503408 362.326433 502.188519 397.056352 504.657273 396.559906 504.767909 361.634955"></polygon>
                    <polygon id="Path-342" fill="#BCA8CE" points="532.805031 356.101714 532.805031 391.008935 531.307184 391.498288 531.054706 356.558444"></polygon>
                    <polygon id="Path-343" fill="#766089" points="530.9216 356 530.9216 390.867505 530 391.04186 530.293288 356.16245"></polygon>
                    <polygon id="Path-343-Copy" fill="#766089" points="502.9216 362 502.9216 396.867505 502 397.04186 502.293288 362.16245"></polygon>
                    <polygon id="Path-344" fill="#766089" points="496.280683 363.447113 498.616024 357.794579 533.270202 350.869945 498.032512 357.317003"></polygon>
                    <path d="M513.443416,394.524323 L513.376393,370.029332 C513.376393,370.029332 513.764731,363.137803 518.043914,362.642377 C522.323097,362.146951 523.308606,367.546915 523.308606,367.546915 L523.902486,392.400779 L513.443416,394.524323 Z" id="Path-345" fill="#8D75A1"></path>
                    <polygon id="Path-346" fill="#8D75A1" points="541.351058 357.039414 549.910605 355.174719 549.939197 379.950944 542.183782 381.539553"></polygon>
                    <polygon id="Path-347" fill="#8D75A1" points="496.464365 388.354132 496.782445 365.099505 488.826891 366.688114 488.826891 390.350169"></polygon>
                    <polygon id="Path-348" fill="#7F6992" points="423 370 423 375.169951 426.509129 375.660769 426.735524 370.214014"></polygon>
                    <polygon id="Path-348-Copy" fill="#7F6992" points="431 372 431 377.169951 434.509129 377.660769 434.735524 372.214014"></polygon>
                    <polygon id="Path-348-Copy-2" fill="#7F6992" points="439 374 439 379.169951 442.509129 379.660769 442.735524 374.214014"></polygon>
                    <polygon id="Path-348-Copy-3" fill="#7F6992" points="447 376 447 381.169951 450.509129 381.660769 450.735524 376.214014"></polygon>
                    <polygon id="Path-348-Copy-4" fill="#7F6992" points="468 381 468 386.169951 471.509129 386.660769 471.735524 381.214014"></polygon>
                    <polygon id="Path-348-Copy-5" fill="#7F6992" points="457 379 457 384.169951 460.509129 384.660769 460.735524 379.214014"></polygon>
                    <path d="M628.776875,353.138425 C628.776875,353.138425 633.922347,342.58794 644.561715,342.58794 C655.201084,342.58794 719.995458,341.095585 736.291379,341.095585 C752.5873,341.095585 765.56253,361.694361 765.56253,361.694361 L767.806841,361.457042 C767.806841,361.457042 755.895548,338.706393 736.059393,338.933935 C716.223238,339.161477 658.774205,340.522285 645.111016,340.216526 C631.447828,339.910766 626.241915,352.635344 626.241915,352.635344 L628.776875,353.138425 Z" id="Path-349" fill="#B4A3C4"></path>
                    <polygon id="Path-351" fill="#A496B0" points="53 274.310783 53.0903912 286.427263 56.6146314 286.958438 56.6146314 274"></polygon>
                    <polygon id="Path-351-Copy-2" fill="#A496B0" points="53 293.310783 53.0903912 305.427263 56.6146314 305.958438 56.6146314 293"></polygon>
                    <polygon id="Path-351-Copy-4" fill="#A496B0" points="53 312.310783 53.0903912 324.427263 56.6146314 324.958438 56.6146314 312"></polygon>
                    <polygon id="Path-351-Copy-6" fill="#BCBCBC" points="53 332.310783 53.0903912 344.427263 56.6146314 344.958438 56.6146314 332"></polygon>
                    <polygon id="Path-351-Copy" fill="#A496B0" points="62 274.310783 62.0903912 286.427263 65.6146314 286.958438 65.6146314 274"></polygon>
                    <polygon id="Path-351-Copy-3" fill="#A496B0" points="62 293.310783 62.0903912 305.427263 65.6146314 305.958438 65.6146314 293"></polygon>
                    <polygon id="Path-351-Copy-5" fill="#A496B0" points="62 312.310783 62.0903912 324.427263 65.6146314 324.958438 65.6146314 312"></polygon>
                    <polygon id="Path-352" fill="#A496B0" points="0 267 7.6416091 268.06235 7.6416091 276.415917 0 275.86834"></polygon>
                    <polygon id="Path-352-Copy" fill="#A496B0" points="0 283 7.6416091 284.06235 7.6416091 292.415917 0 291.86834"></polygon>
                    <polygon id="Path-352-Copy-2" fill="#A496B0" points="0 299 7.6416091 300.06235 7.6416091 308.415917 0 307.86834"></polygon>
                    <polygon id="Path-352-Copy-3" fill="#A496B0" points="0 315 7.6416091 316.06235 7.6416091 324.415917 0 323.86834"></polygon>
                    <polygon id="Path-352-Copy-4" fill="#A496B0" points="0 331 7.6416091 332.06235 7.6416091 340.415917 0 339.86834"></polygon>
                    <polygon id="Path-353" fill="#6D5483" points="389.098749 265.072112 394.69881 265.072112 395.103882 273.315437 390.11715 273.315437"></polygon>
                </g>
            </g>
        </g>
    </g>
</svg>