<?xml version="1.0" encoding="UTF-8" standalone="no"?>
<svg width="1241px" height="891px" viewBox="0 0 1241 891" version="1.1" xmlns="http://www.w3.org/2000/svg" xmlns:xlink="http://www.w3.org/1999/xlink">
    <!-- Generator: Sketch 43.2 (39069) - http://www.bohemiancoding.com/sketch -->
    <title>front</title>
    <desc>Created with Sketch.</desc>
    <defs>
        <radialGradient cx="37.3890464%" cy="17.8295424%" fx="37.3890464%" fy="17.8295424%" r="174.401587%" gradientTransform="translate(0.373890,0.178295),rotate(73.339828),scale(1.000000,1.094374),translate(-0.373890,-0.178295)" id="radialGradient-1">
            <stop stop-color="#FFFFFF" offset="0%"></stop>
            <stop stop-color="#000000" offset="100%"></stop>
        </radialGradient>
    </defs>
    <g id="Page-1" stroke="none" stroke-width="1" fill="none" fill-rule="evenodd">
        <g id="Artboard" transform="translate(0.000000, -17.000000)">
            <g id="front" transform="translate(0.000000, 17.000000)">
                <g id="front-base" transform="translate(0.000000, 127.000000)">
                    <path d="M310.087386,417.45655 L358.935918,406.6678 L358.819827,405.340164 L429.412923,391.102157 L428.722631,355.25251 C428.722631,355.25251 454.305195,355.076696 454.453747,356.70909 C454.602298,358.341484 454.453747,361.224046 454.453747,361.224046 L468.299053,365.27443 L478.781093,363.147422 L539.149632,378.62401 L614.749078,363.86533 L614.401394,384.035459 L614.160878,394.17107 L928.699847,464.691237 L970.413231,447.060485 C970.413231,447.060485 977.038578,443.980035 982.993835,444.35355 C988.949093,444.727065 1000.24128,447.603271 1000.24128,447.603271 L1023.92522,436.82729 L1041.65529,438.275186 L1041.72391,440.618987 L1057.0742,444.330567 L1064.84406,443.043335 C1064.84406,443.043335 1086.52634,448.682444 1087.34331,451.577058 C1088.16027,454.471671 1097.04121,451.816531 1097.04121,451.816531 L1150.51421,467.499875 L1159.61003,464.789468 L1217.39565,484.499013 L1217.39565,661.785776 L1090.482,638.042601 C1090.482,638.042601 1091.88905,631.998061 1086.88855,631.357829 C1081.88804,630.717597 1082.76261,643.001259 1082.76261,643.001259 L1056.09256,639.477892 L1056.37188,629.627529 C1056.37188,629.627529 1056.01201,627.324997 1054.16245,627.324997 C1052.31289,627.324997 1051.4875,629.196524 1051.4875,629.196524 L1050.92991,637.83756 L1026.60738,633.734637 L1026.32807,624.210667 C1026.32807,624.210667 1025.44304,620.665331 1023.3037,620.665331 C1021.16437,620.665331 1020.32746,626.502738 1020.32746,626.502738 L872.350244,598.532353 L866.290011,597.845046 L865.732424,601.486625 C865.732424,601.486625 834.351654,595.235997 834.351654,593.141644 C834.351654,591.047291 817.987629,570.376147 818.625432,544.787776 C819.263236,519.199405 860.002088,497.590668 859.371292,491.224797 C858.740495,484.858927 813.065318,488.676249 813.065318,488.676249 L508.335073,402.609025 C508.335073,402.609025 493.280495,412.908829 481.736328,416.987625 C477.518788,415.968217 475.298093,415.968217 472.769604,415.968217 C459.327191,415.968217 370.63668,429.531951 370.63668,429.531951 L310.087386,417.45655 Z" id="ground" fill="#E1D6EB"></path>
                    <path d="M546.432096,389.346667 C546.432096,389.346667 1204.59788,555.622001 1230.45211,575.000457 C1237.2862,575.000457 1228.83708,570.071382 1228.83708,570.071382 C1228.83708,570.071382 1000.99981,503.026185 886.136851,472.606455 C771.273892,442.186725 546.432096,389.346667 546.432096,389.346667 Z" id="Path-182" fill="#D4C9DD"></path>
                    <polygon id="Path-33" fill="#AD8BCB" points="373.326843 346.573648 405.862086 341.356138 399.493565 112.252348 366.235868 115.047211"></polygon>
                    <polygon id="Path-35" fill="#A887C5" points="355.44925 22.0653175 398.318768 23.6520062 400.339317 54.458145 408.999992 53.9065228 410.770555 69.2259191 410.770555 97.4311411 357.659871 99.9928039"></polygon>
                    <polygon id="Path-45" fill="#8661A6" points="342.364003 24.3512665 355.485957 22.1280197 357.23873 106.63603 342.364003 106.63603"></polygon>
                    <polygon id="Path-32" fill="#AD8BCB" points="425.191544 339.558623 416.957669 69 398 69.5491187 409.295014 342.504245"></polygon>
                    <polygon id="Path-32-Copy" fill="#AD8BCB" points="373.191544 346.973649 364.957669 69 346 69.564168 357.295014 350"></polygon>
                    <polygon id="Path-34" fill="#8A66A9" points="409.969782 342.262716 397.648567 68.6991575 394.417479 69.5514154 405.504335 342.309907"></polygon>
                    <polygon id="Path-36" fill="#CCB9DC" points="396.376727 98.3668613 398.008868 112.149153 365.58663 115.850041 365.58663 98.3668613"></polygon>
                    <polygon id="Path-37" fill="#AA87C9" points="356.316626 351.843515 358.908882 405.315105 429.426014 391.106762 428.891478 340.214404"></polygon>
                    <polygon id="Path-38" fill="#BEA8D2" points="393.99488 23.2204177 393.269289 10.328063 355 4 356.510704 21.9068435"></polygon>
                    <polygon id="Path-39" fill="#BEA8D2" points="405.789883 340.787256 373.182031 345.969391 373.182031 346.9712 356.397428 350.160466 356.397428 351.898948 376.364897 349.12497 429.032624 340.256521 425.30174 339.494766 410.02306 341.87554"></polygon>
                    <polygon id="Path-40" fill="#8661A6" points="345.420294 409.740394 358.910431 406.805503 356.348378 351.681186 342.911641 353.330335"></polygon>
                    <polygon id="Path-41" fill="#D1B9E7" points="357.526673 4.78437696 357.526673 0.76008247 387.327327 4.57794341 388.308466 9.8408392"></polygon>
                    <polygon id="Path-42" fill="#785A93" points="338.069743 83.8427123 345.274722 408.845987 325.70878 404.212337 314.733501 110.839247 328.495202 104.686702 327.721242 87.5958145"></polygon>
                    <polygon id="Path-43" fill="#936CB5" points="343.318401 353.254191 356.612424 351.875886 356.612424 349.184311 343.318401 350.289443"></polygon>
                    <polygon id="Path-44" fill="#8661A6" points="356.543921 349.212298 347.496931 106.670929 338.565143 106.670929 343.973689 350.315153"></polygon>
                    <polygon id="Path" fill="#AC8FC4" points="112.456795 351.282117 110.873102 305.263795 146.939216 302.331165 149.140816 362.970063"></polygon>
                    <polygon id="Path-46" fill="#936BB5" points="324.364013 33.8805707 342.370103 26.6745432 343.435933 106.692821 338.578085 106.692821 338.578085 83.1009613 328.248785 86.9748488 328.94295 104.344964 326.275054 105.464584"></polygon>
                    <polygon id="Path-47" fill="#9F8AB1" points="322.325265 34.702485 322.325265 19.164941 355.965436 4.74072264 355.965436 21.3402439"></polygon>
                    <polygon id="Path-48" fill="#AE98C1" points="328.896528 16.7993086 328.896528 12.0097403 357.294086 0.712083084 357.646321 4.36651953"></polygon>
                    <polygon id="Path-49" fill="#73538E" points="314.385541 90.9510316 325.395928 404.521109 317.151238 402.93767 306.320972 94.5452912"></polygon>
                    <polygon id="Path-50" fill="#7B5D95" points="316.822974 415.007655 306.260052 96.2900673 289.069016 104.378063 289.069016 121.104039 266.52575 132.542487 274.644076 404.11919"></polygon>
                    <polygon id="Path-51" fill="#5A426F" points="289.299524 109.210641 260.372807 123.506173 269.993478 401.280304 274.896826 404.25062 267.231428 132.186615 290.247842 120.430713"></polygon>
                    <polygon id="Path-52" fill="#82639D" points="183.688238 397.035352 174.521869 169.924342 190.943212 162.760576 189.971652 145.373623 208.66922 134.747932 209.571382 162.562299 227.156614 159.38391 232.25566 410.806467"></polygon>
                    <polygon id="Path-53" fill="#916DB0" points="227.490029 171.614959 238.85698 172.132594 242.055185 407.83751 232.240812 410.893177"></polygon>
                    <polygon id="Path-54" fill="#A479C9" points="208.909136 136.312341 233.614512 136.221133 234.185551 158.678043 210.826479 162.486953"></polygon>
                    <polygon id="Path-55" fill="#A47FC5" points="263.463206 216.307397 261.720347 160.091761 227.426271 159.738827 227.426271 171.484786 238.910504 171.992376 239.130592 217.237318"></polygon>
                    <polygon id="Path-56" fill="#BEA0D9" points="204.56091 121.6636 210.406131 121.134199 211.443122 135.771043 206.153078 137.357263"></polygon>
                    <polygon id="Path-57" fill="#7E5C9C" points="238.805418 217.148546 263.543155 216.23112 269.890113 399.792434 241.930843 405.306878"></polygon>
                    <polygon id="Path-58" fill="#9575B0" points="159.895626 222.084089 160.670109 389.0878 183.854938 397.076435 176.245993 221.016348"></polygon>
                    <polygon id="Path-59" fill="#BF9ADE" points="324.436328 443.813199 162.858654 389.800588 114.196936 406.596359 260.465026 463.503612"></polygon>
                    <polygon id="Path-60" fill="#9979B5" points="110.770624 417.444275 115.12658 407.106263 261.42887 463.7368 250.161215 479.117896"></polygon>
                    <polygon id="Path-61" fill="#AF8DCB" points="250.442646 478.991584 329.369742 456.910383 323.688818 444.163998 261.333035 463.59704"></polygon>
                    <polygon id="Path-62" fill="#AC8AC9" points="163.144473 389.691107 162.631816 366.523651 111.416467 381.378455 110.720233 417.637013 115.391256 405.905743"></polygon>
                    <path d="M317.378983,393.954566 L316.674536,439.439388 L325.432575,445.067927 L328.995231,444.057427 C328.995231,444.057427 327.551675,434.98621 328.995231,434.576764 C330.438787,434.167319 344.287104,436.686392 344.287104,436.686392 L344.287104,400.948374 L317.378983,393.954566 Z" id="Path-81" fill="#896BA3"></path>
                    <polygon id="Path-63" fill="#9C77BB" points="111.447001 417.842898 63.285491 398.647735 63.285491 363.746998 111.447001 381.795639"></polygon>
                    <polygon id="Path-64" fill="#C09DDD" points="66.9626451 365.03339 109.460529 381.078981 159.167699 366.449011 127.562055 358.087987"></polygon>
                    <polygon id="Path-65" fill="#DCC4F0" points="111.341188 381.798597 162.06238 366.744144 158.947497 365.9718 108.938402 380.967093"></polygon>
                    <polygon id="Path-66" fill="#DCC4F0" points="108.905846 380.872987 61.61347 363.155693 121.273037 354.072909 127.902429 354.072909 66.4310407 363.429944 111.003483 380.28979"></polygon>
                    <polygon id="Path-67" fill="#AB85CC" points="127.430328 354.201781 127.525848 358.117614 70.08572 364.655962 66.658103 363.514771"></polygon>
                    <polygon id="Path-69" fill="#9F7FBA" points="57.3326275 391.672129 22.7464212 376.931309 22.8584829 350.64552 57.3750433 363.611682"></polygon>
                    <polygon id="Path-70" fill="#C2A2DD" points="23.0035346 350.521938 66.7829857 343.655805 109.789526 351.222061 57.3849927 363.588641"></polygon>
                    <polygon id="Path-74" fill="#BCA5D0" points="67.5152467 301.39924 107.823996 300.435187 134.281284 302.533796 109.862266 308.17778"></polygon>
                    <path d="M370.911225,468.946212 L385.073737,465.336897 L382.055805,460.508206 L381.235994,446.190195 L408.56749,438.082258 L408.841102,457.913502 L411.927693,458.904449 L422.659028,453.529559 C422.659028,453.529559 467.814254,425.969541 471.275909,419.15793 C465.627406,420.717622 370.911225,443.893815 370.911225,443.893815 L370.911225,468.946212 Z" id="Path-80" fill="#AC86CC"></path>
                    <polygon id="Path-68" fill="#DCC4F0" points="61.4773377 395.634609 61.4773377 361.656842 118.815202 352.744926 113.240396 351.736427 57.3211071 359.399895 57.3858934 393.190831"></polygon>
                    <polygon id="Path-71" fill="#AB85CC" points="61.2811758 395.647561 61.2811758 360.79945 118.421415 351.74938 118.427175 354.456663 63.2493781 363.514818 63.2493781 394.202136"></polygon>
                    <polygon id="Path-72" fill="#9675B2" points="67.3446571 342.441656 67.3312772 301.682849 110.690649 308.280353 112.365569 351.192107"></polygon>
                    <polygon id="Path-73" fill="#CEB7E2" points="146.956697 302.155126 142.141053 301.96184 109.306159 304.207181 109.269112 352.069271 112.473636 351.738671 112.536857 305.099116"></polygon>
                    <polygon id="Path-75" fill="#AC86CC" points="369.757645 441.729383 473.000383 415.991828 473.376688 408.946404 369.757645 429.594657"></polygon>
                    <polygon id="Path-76" fill="#9D7BBA" points="370.242725 441.098642 318.189193 425.564081 318.189193 419.09624 370.242725 429.467056"></polygon>
                    <polygon id="Path-77" fill="#8769A1" points="316.97284 425.191076 371.743129 440.925928 371.743129 444.085399 316.97284 428.314498"></polygon>
                    <polygon id="Path-78" fill="#9E7BBA" points="371.748493 440.952168 473.269076 415.937095 473.269076 418.626078 371.748493 444.129022"></polygon>
                    <path d="M320.932697,429.368685 L321.206309,448.084985 L328.654298,454.349371 L328.621506,435.057153 C328.621506,435.057153 331.353528,435.158092 344.81586,438.50856 C358.278193,441.859028 364.396037,447.333833 364.396037,447.333833 L363.951289,460.839205 L361.171103,464.497614 L370.879296,468.835886 L370.879296,443.801327 L320.932697,429.368685 Z" id="Path-79" fill="#9D7BBA"></path>
                    <polygon id="Path-82" fill="#A479C9" points="504.857685 458.15406 488.280394 451.468727 485.398403 372.191767 502.802456 378.615526 523.577786 369.57135 523.52407 449.608511"></polygon>
                    <polygon id="Path-84" fill="#8661A6" points="528.2719 458.085049 517.521688 453.715961 517.521688 418.372663 527.905954 424.43456"></polygon>
                    <polygon id="Path-85" fill="#A479C9" points="528.23087 457.952975 546.961046 449.150789 546.617751 418.255859 527.868414 424.335731"></polygon>
                    <polygon id="Path-86" fill="#8661A6" points="504.971951 458.069151 503.124877 378.084689 486.018985 371.102448 487.978117 450.802987"></polygon>
                    <polygon id="Path-87" fill="#AC86CC" points="547.932089 447.682777 204.293407 594.063884 204.293407 613.907538 548.571585 455.19428"></polygon>
                    <polygon id="Path-88" fill="#643C86" points="205.185069 613.409757 0 442.501158 0 438.156043 205.185069 594.206419"></polygon>
                    <polygon id="Path-89" fill="#B586DE" points="517.705123 418.100256 527.83529 424.381629 546.61349 418.261815 536.249358 414.676164"></polygon>
                    <polygon id="Path-90" fill="#E1D6EA" points="523.64056 401.275795 528.962557 399.577353 535.746311 401.412324 535.680946 414.554431 523.635288 417.102095"></polygon>
                    <path d="M536.151757,410.539946 L814.544509,489.25415 L814.544509,501.986687 C814.544509,501.986687 669.970087,452.422255 659.621136,449.236875 C649.272186,446.051495 536.151757,416.298125 536.151757,416.298125 L536.151757,410.539946 Z" id="Path-91" fill="#CDB0E6"></path>
                    <path d="M550.728585,453.519298 C550.728585,453.519298 575.34485,434.981613 670.014653,462.562232 C764.684455,490.142852 802.502567,531.932537 802.502567,531.932537 L810.002714,524.361862 C810.002714,524.361862 740.839631,476.977547 670.599329,459.059081 C600.359026,441.140614 570.820141,439.005766 550.855103,450.783999 C550.855103,450.783999 550.728585,453.519298 550.728585,453.519298 Z" id="Path-92" fill="#CDB0E6"></path>
                    <polygon id="Path-93" fill="#CDB0E6" points="553.535545 421 553 449.186051 557.189012 447.731793 557.119507 422.035446"></polygon>
                    <polygon id="Path-93-Copy" fill="#CDB0E6" points="567.535545 424 567 445.067927 571.189012 443.980928 571.119507 424.773954"></polygon>
                    <polygon id="Path-93-Copy-2" fill="#CDB0E6" points="585.535545 428 585 444.538337 589.189012 443.685042 589.119507 428.607554"></polygon>
                    <polygon id="Path-93-Copy-3" fill="#CDB0E6" points="608.535545 433 608 447.682777 612.189012 446.92522 612.119507 433.539388"></polygon>
                    <polygon id="Path-93-Copy-4" fill="#CDB0E6" points="628.535545 440 628 450.454181 632.189012 449.914798 632.119507 440.384046"></polygon>
                    <polygon id="Path-93-Copy-5" fill="#CDB0E6" points="651.535545 446 651 456.454181 655.189012 455.914798 655.119507 446.384046"></polygon>
                    <polygon id="Path-93-Copy-6" fill="#CDB0E6" points="670.535545 451 670 461.454181 674.189012 460.914798 674.119507 451.384046"></polygon>
                    <polygon id="Path-93-Copy-7" fill="#CDB0E6" points="687.535545 456 687 466.454181 691.189012 465.914798 691.119507 456.384046"></polygon>
                    <polygon id="Path-93-Copy-8" fill="#CDB0E6" points="709.535545 464 709 474.454181 713.189012 473.914798 713.119507 464.384046"></polygon>
                    <polygon id="Path-93-Copy-9" fill="#CDB0E6" points="736.535545 473 736 487.682777 740.189012 486.92522 740.119507 473.539388"></polygon>
                    <polygon id="Path-93-Copy-10" fill="#CDB0E6" points="758.535545 481 758 497.538337 762.189012 496.685042 762.119507 481.607554"></polygon>
                    <polygon id="Path-93-Copy-11" fill="#CDB0E6" points="781.535545 488 781 510.990994 785.189012 509.804775 785.119507 488.8446"></polygon>
                    <polygon id="Path-93-Copy-12" fill="#CDB0E6" points="799.535545 495.029232 799 524.990994 803.189012 523.445118 803.119507 496.12991"></polygon>
                    <polygon id="Path-128" fill="#AE7BD9" points="614.976179 383.793165 614.824873 393.044209 915.339278 461.819217 915.339278 447.882782"></polygon>
                    <polygon id="Path-94" fill="#8661A6" points="817.191553 448.243885 838.813669 454.517027 838.400623 487.768118 817.448847 483.150604"></polygon>
                    <polygon id="Path-95" fill="#765592" points="838.641567 487.823191 839.626854 497.468684 809.616455 490.372031 816.550471 482.403679"></polygon>
                    <polygon id="Path-96" fill="#8661A6" points="810.118995 490.21886 810.118995 501.697246 839.38505 514.668623 839.929755 497.455776"></polygon>
                    <polygon id="Path-97" fill="#765592" points="817.234647 448.657575 817.234647 439.832963 838.935854 445.025598 838.935854 455.321745"></polygon>
                    <polygon id="Path-98" fill="#8661A6" points="838.956365 445.049401 838.007058 423.433479 817.272758 440.012393"></polygon>
                    <polygon id="Path-99" fill="#A479C9" points="837.940205 423.384395 856.736449 437.812563 838.950458 445.243764"></polygon>
                    <polygon id="Path-100" fill="#BEA3D6" points="838.768008 445.093633 839.091981 455.416009 857.630738 443.568733 857.630738 437.560637"></polygon>
                    <polygon id="Path-101" fill="#A479C9" points="838.43775 487.876878 856.679808 476.048971 857.330408 443.797582 838.871739 455.553158"></polygon>
                    <polygon id="Path-102" fill="#A479C9" points="839.377649 514.310199 859.786826 493.177765 859.786826 482.553939 840.035196 497.442597"></polygon>
                    <polygon id="Path-103" fill="#BEA3D6" points="856.863192 476.063977 859.868738 482.406767 840.035646 497.218914 838.830368 487.665797"></polygon>
                    <polygon id="Path-83" fill="#8661A6" points="485.79467 370.851822 502.744515 354.115274 503.341623 378.513833"></polygon>
                    <polygon id="Path-104" fill="#A479C9" points="502.815413 354.188499 523.416281 369.801608 503.340985 378.583788"></polygon>
                    <polygon id="Path-105" fill="#BEA3D6" points="523.447041 369.673087 523.447041 375.350173 503.415208 386.595562 503.31218 378.374921"></polygon>
                    <polygon id="Path-106" fill="#765592" points="485.812231 370.715106 503.622052 378.609166 503.622052 386.685688 485.812231 376.748486"></polygon>
                    <polygon id="Path-107" fill="#8661A6" points="865.692338 648.150456 866.181674 594.564557 873.298513 595.236646 872.426538 652.623765"></polygon>
                    <polygon id="Path-108" fill="#AF89D0" points="873.132948 598.366303 1021.46317 626.578564 1021.14921 637.42 873.460399 609.822168"></polygon>
                    <polygon id="Path-109" fill="#8661A6" points="873.411292 598.36883 1021.75932 626.688729 1021.65702 628.558921 873.393376 600.642998"></polygon>
                    <polygon id="Path-110" fill="#8661A6" points="1021.53508 626.543819 1000.93586 719.607939 1008.35227 719.781477 1024.73357 627.16352"></polygon>
                    <path d="M1051.93409,630.9758 C1051.93409,630.9758 1052.20028,628.317302 1054.23812,628.49861 C1056.27596,628.679917 1056.27596,631.782517 1056.27596,631.782517 L1040.72737,742.572164 L1041.78508,701.308876 L1051.93409,630.9758 Z" id="Path-111" fill="#8661A6"></path>
                    <polygon id="Path-113" fill="#AF89D0" points="1088 646.704306 1240.18093 679.593786 1240.47773 669.001475 1088.71445 639"></polygon>
                    <path d="M1084.22219,636.260907 C1084.22219,636.260907 1084.66143,631.21457 1087.1299,631.434191 C1089.59837,631.653811 1089.81799,636.005917 1089.81799,636.005917 L1087.16773,673.411326 L1092.89185,683.219398 L1190.16632,763.241769 L1138.41584,731.703792 L1086.89547,690.87157 L1086.55658,698.602706 L1126.42223,736.673833 L1102.75504,721.008114 L1085.24873,702.469509 L1078.86254,761.447319 L1070.33353,761.236747 L1084.22219,636.260907 Z" id="Path-112" fill="#8661A6"></path>
                    <polygon id="Path-114" fill="#8661A6" points="1090.11183 637.692404 1240.26044 666.545689 1240.5286 669.581654 1089.10985 639.434018"></polygon>
                    <polygon id="Path-115" fill="#CDB0E5" points="872.946038 653.80205 872.946038 609.683841 1019.06134 636.752649 1008.40471 688.46905"></polygon>
                    <polygon id="Path-116" fill="#CDB0E5" points="1089.20482 646.818945 1240.49824 679.648852 1230.44484 710.868594 1159.97677 738.527387 1093.00422 683.483294 1087.46748 673.729265"></polygon>
                    <path d="M840.779604,506.600562 C840.779604,506.600562 812.135142,514.589768 802.700049,550.347376 C793.264956,586.104983 800.884528,632.903759 800.884528,632.903759 L840.779604,623.398673 C840.779604,623.398673 813.106258,589.39106 818.943992,552.667385 C824.781726,515.943711 840.483062,514.601397 840.483062,514.601397 L845.398303,507.598728 L840.779604,506.600562 Z" id="Path-117" fill="#8661A6"></path>
                    <path d="M779.403044,644.040975 L779.403044,545.07357 C779.403044,545.07357 779.664699,541.728871 786.050055,541.728871 C792.435412,541.728871 792.697067,544.749892 792.697067,544.749892 L792.697067,636.470351 L779.403044,644.040975 Z" id="Path-118" fill="#8661A6"></path>
                    <ellipse id="Oval" fill="#C8C8C8" cx="786.055511" cy="545.728871" rx="6.05551136" ry="3"></ellipse>
                    <path d="M798.656467,633.305224 L560.120296,750.960626 C560.120296,750.960626 612.803884,735.470519 625.09733,727.381009 C637.390776,719.291499 802.022747,646.204079 807.1635,646.204079 C812.304253,646.204079 1005.3304,702.61406 1005.3304,702.61406 L1008.11476,687.554524 L873.985464,653.450714 L867.370332,650.027025 L867.286827,632.618921 L841.674394,623.023718 L798.656467,633.305224 Z" id="Path-119" fill="#E0C8F5"></path>
                    <path d="M819.748326,549.820934 C819.748326,549.820934 826.983011,590.954904 866.762887,595.50151 C866.762887,611.950071 866.55508,631.562654 866.55508,631.562654 L841.298202,623.106267 C841.298202,623.106267 825.313943,609.50744 819.748326,587.145675 C814.182709,564.78391 819.748326,549.820934 819.748326,549.820934 Z" id="Path-120" fill="#A479C9"></path>
                    <polygon id="Path-121" fill="#9766C0" points="89.4123252 411.954198 259.51265 488.577082 259.51265 495.329525 89.4123252 417.189089"></polygon>
                    <polygon id="Path-122" fill="#AC86CC" points="259.647309 488.345638 341.129956 461.956276 341.139231 466.867866 259.802457 495.185607"></polygon>
                    <polygon id="Path-123" fill="#EBEBEB" points="329.59381 457.204402 341.12164 461.981535 260.218259 488.314648 89.8191832 412.062125 95.7214326 411.321507 250.662574 479.247033"></polygon>
                    <polygon id="Path-124" fill="#9D86B2" points="314.496334 90.99296 325.991037 92.5835872 326.287877 105.538691 315.214496 110.540384"></polygon>
                    <polygon id="Path-125" fill="#FFFFFF" points="364.861723 69.2173489 373.192937 346.665349 374.920825 346.260454"></polygon>
                    <polygon id="Path-126" fill="#F2F2F2" points="338.634387 106.641885 338.62677 83.0581465 328.35364 86.999945 328.329566 87.3641758 338.11157 83.8329869"></polygon>
                    <polygon id="Path-127" fill="#A479C9" points="239 236.744939 264.207455 235 264.207455 237.438284 239 239.898819"></polygon>
                    <polygon id="Path-127-Copy" fill="#A479C9" points="239.508922 257.707852 265.021164 256.168036 265.021164 258.026012 239.508922 260.827071"></polygon>
                    <polygon id="Path-127-Copy-2" fill="#A479C9" points="240 280.618568 265.832742 279.019916 265.832742 281.020795 240 283.803878"></polygon>
                    <polygon id="Path-127-Copy-3" fill="#A479C9" points="240.197575 301.595183 266.501172 300.008305 266.501172 301.970945 240.197575 304.817717"></polygon>
                    <polygon id="Path-127-Copy-4" fill="#A479C9" points="240.595642 323.679238 267.338854 321.971273 267.338854 323.849226 240.595642 326.839023"></polygon>
                    <polygon id="Path-127-Copy-5" fill="#A479C9" points="241 345.618568 268.022972 343.847838 268.022972 345.832171 241 348.803878"></polygon>
                    <polygon id="Path-127-Copy-6" fill="#A479C9" points="241.293364 367.618568 268.814818 365.705897 268.814818 367.618568 241.293364 370.862148"></polygon>
                    <polygon id="Path-127-Copy-7" fill="#A479C9" points="241.670352 388.509244 269.422214 386.778115 269.422214 388.509244 241.670352 391.66241"></polygon>
                    <polygon id="Path-129" fill="#AF8AD0" points="536.075581 410.920131 811.771816 488.413954 817.593242 481.577997 818.089838 476.423872 536.075581 405.244046"></polygon>
                    <polygon id="Path-130" fill="#8661A6" points="631.316107 387.206541 630.689504 358.940138 614.750463 355.106411 614.869713 383.728288"></polygon>
                    <polygon id="Path-131" fill="#A479C9" points="643.965632 389.967248 643.965632 355.322242 630.743051 359.152866 630.743051 387.258988"></polygon>
                    <polygon id="Path-132" fill="#765592" points="631.250563 359.26409 631.250563 355.725884 613.881461 351.792093 613.881461 354.873253"></polygon>
                    <polygon id="Path-133" fill="#BEA3D6" points="644.460071 355.194461 631.166048 359.219073 631.166048 355.716475 644.460071 352.251135"></polygon>
                    <polygon id="Path-134" fill="#8661A6" points="614.008825 351.774529 627.670221 337.617795 631.103957 355.840638"></polygon>
                    <polygon id="Path-135" fill="#A479C9" points="627.652088 337.696924 644.27847 352.253846 631.236376 355.738388"></polygon>
                    <polygon id="Path-136" fill="#8661A6" points="915.262328 461.523221 915.262328 410.252018 932.053285 413.043211 932.053285 465.540197"></polygon>
                    <polygon id="Path-137" fill="#765592" points="914.496736 409.960685 932.525049 413.554419 932.525049 410.145547 914.538467 407.238459"></polygon>
                    <polygon id="Path-138" fill="#A479C9" points="931.982012 413.32764 931.928275 465.267187 947.649797 457.789593 946.721668 407.663079"></polygon>
                    <polygon id="Path-139" fill="#BEA3D6" points="947.671408 407.338906 947.671408 404.89094 932.253033 410.155416 932.253033 413.480829"></polygon>
                    <polygon id="Path-140" fill="#8661A6" points="914.687382 407.172758 931.278117 394.535422 932.198593 410.054409"></polygon>
                    <polygon id="Path-141" fill="#A479C9" points="932.247454 410.13277 947.623322 404.944927 931.385246 394.647433"></polygon>
                    <path d="M955.546012,453.139836 L955.62864,438.368521 C955.62864,438.368521 954.896971,437.701277 953.498044,438.162457 C952.099118,438.623637 952,439.754528 952,439.754528 L952.111105,454.622476 L955.546012,453.139836 Z" id="Path-142" fill="#7D599E"></path>
                    <path d="M966.546012,449.139836 L966.62864,434.368521 C966.62864,434.368521 965.896971,433.701277 964.498044,434.162457 C963.099118,434.623637 963,435.754528 963,435.754528 L963.111105,450.622476 L966.546012,449.139836 Z" id="Path-142-Copy" fill="#7D599E"></path>
                    <polygon id="Path-143" fill="#AD7BD9" points="952.132788 443.531492 947.59043 446.07795 947.658369 456.647764 952.118194 454.690112"></polygon>
                    <path d="M966.864502,448.58918 C966.864502,448.58918 975.043866,443.744871 981.448762,444.27077 C987.853658,444.796669 1000.33785,447.694397 1000.33785,447.694397 L1000.06911,440.999125 C1000.06911,440.999125 989.460543,435.590669 981.920813,436.217218 C974.381082,436.843768 966.991825,440.596522 966.991825,440.596522 L966.864502,448.58918 Z" id="Path-144" fill="#8E64B3"></path>
                    <polygon id="Path-145" fill="#8F72A8" points="1000.43296 447.583178 1023.91825 436.509105 1023.98468 431.666305 1000.14711 441.118899"></polygon>
                    <circle id="Oval-2" fill="url(#radialGradient-1)" cx="931.5" cy="391.5" r="4.5"></circle>
                    <circle id="Oval-2-Copy" fill="url(#radialGradient-1)" cx="837.5" cy="420.5" r="4.5"></circle>
                    <circle id="Oval-2-Copy-2" fill="url(#radialGradient-1)" cx="627.5" cy="334.5" r="4.5"></circle>
                    <circle id="Oval-2-Copy-3" fill="url(#radialGradient-1)" cx="502.5" cy="351.5" r="4.5"></circle>
                </g>
                <g id="front-detail" transform="translate(68.000000, 0.000000)">
                    <path d="M336.924799,523.535119 L337.2357,489.14718 C337.2357,489.14718 333.332534,485.086502 325.164997,485.51698 C316.99746,485.947458 313.000281,491.686341 313.000281,491.686341 L312.935957,527.778049 L336.924799,523.535119 Z" id="Path-146" fill="#936CB5"></path>
                    <path d="M335.361827,490.204267 C335.361827,490.204267 332.435785,486.854184 326.477558,486.854184 C320.519332,486.854184 314.906465,491.860298 314.906465,491.860298 L314.76547,497.274082 L335.454239,495.324972 L335.361827,490.204267 Z" id="Path-147" fill="#8863A8"></path>
                    <polygon id="Path-148" fill="#8863A8" points="335.358143 499 335.499138 508.250221 328 508.973151 328 499.976403"></polygon>
                    <polygon id="Path-148-Copy" fill="#8863A8" points="335.358143 509.73128 335.358143 523.973151 328 525.103429 328 510.452625"></polygon>
                    <polygon id="Path-149" fill="#8863A8" points="315 500.715536 324.204279 500 324.204279 508.593301 315.2408 509.556503"></polygon>
                    <polygon id="Path-149-Copy" fill="#8863A8" points="315 511.654515 324.204279 510.843397 324.204279 525.556503 315 527.285947"></polygon>
                    <polygon id="Path-150" fill="#C5A9DE" points="330.032334 471.038146 322.257365 249.741419 318.152444 249.990481 327.291328 471.50728"></polygon>
                    <polygon id="Path-151" fill="#C5A9DE" points="318.629485 472.645851 311.178691 250.003659 307.542905 250.692864 315.729026 472.785537"></polygon>
                    <polygon id="Path-152" fill="#C5A9DE" points="299.376551 252.218867 328.726403 249.49631 328.726403 243.868022 299.020747 246.590579"></polygon>
                    <polygon id="Path-153" fill="#9C72C0" points="339 200.181107 344.045903 200 344.393195 209.906629 339.626753 209.959537"></polygon>
                    <polygon id="Path-153-Copy" fill="#9E7EBA" points="321 158.235796 323.239086 157 323.393195 224.598518 321.278117 224.959537"></polygon>
                    <polygon id="Path-153-Copy-5" fill="#8863A9" points="268 188.279532 270.239086 188 270.393195 203.290489 268.278117 203.37215"></polygon>
                    <polygon id="Path-153-Copy-9" fill="#64487C" points="261 256.166759 263.239086 256 263.393195 265.121772 261.278117 265.170488"></polygon>
                    <polygon id="Path-153-Copy-13" fill="#64487C" points="262 288.166759 264.239086 288 264.393195 297.121772 262.278117 297.170488"></polygon>
                    <polygon id="Path-153-Copy-18" fill="#64487C" points="263 321.166759 265.239086 321 265.393195 330.121772 263.278117 330.170488"></polygon>
                    <polygon id="Path-153-Copy-20" fill="#835DA3" points="264 337.245463 266.239086 337 266.393195 350.426915 264.278117 350.498623"></polygon>
                    <polygon id="Path-153-Copy-22" fill="#835DA3" points="265 356.556992 267.239086 356.356162 267.393195 367.341616 265.278117 367.400285"></polygon>
                    <polygon id="Path-153-Copy-2" fill="#9E7EBA" points="313.452017 159.502775 316.393195 159.502775 316.393195 225.598518 314.278117 225.959537"></polygon>
                    <polygon id="Path-153-Copy-6" fill="#8863A9" points="261 191.279532 263.239086 191 263.393195 206.290489 261.278117 206.37215"></polygon>
                    <polygon id="Path-153-Copy-10" fill="#64487C" points="254 259.166759 256.239086 259 256.393195 268.121772 254.278117 268.170488"></polygon>
                    <polygon id="Path-153-Copy-14" fill="#64487C" points="255 290.166759 257.239086 290 257.393195 299.121772 255.278117 299.170488"></polygon>
                    <polygon id="Path-153-Copy-19" fill="#64487C" points="256 323.166759 258.239086 323 258.393195 332.121772 256.278117 332.170488"></polygon>
                    <polygon id="Path-153-Copy-21" fill="#835DA3" points="257 340.245463 259.239086 340 259.393195 353.426915 257.278117 353.498623"></polygon>
                    <polygon id="Path-153-Copy-23" fill="#64487C" points="258 375.20083 260.239086 375 260.393195 385.985454 258.278117 386.044123"></polygon>
                    <polygon id="Path-153-Copy-27" fill="#835DA3" points="259 434.20083 261.239086 434 261.393195 444.985454 259.278117 445.044123"></polygon>
                    <polygon id="Path-153-Copy-29" fill="#64487C" points="261 454.20083 263.239086 454 263.393195 464.985454 261.278117 465.044123"></polygon>
                    <polygon id="Path-153-Copy-31" fill="#835DA3" points="262 474.20083 262.935606 474 263 484.985454 262.116212 485.044123"></polygon>
                    <polygon id="Path-153-Copy-34" fill="#64487C" points="260.803403 491.952851 263.042489 491.752021 263.196597 502.737475 261.08152 502.796144"></polygon>
                    <polygon id="Path-153-Copy-25" fill="#64487C" points="258 393.20083 260.239086 393 260.393195 403.985454 258.278117 404.044123"></polygon>
                    <polygon id="Path-153-Copy-24" fill="#64487C" points="266 374.20083 268.239086 374 268.393195 384.985454 266.278117 385.044123"></polygon>
                    <polygon id="Path-153-Copy-28" fill="#64487C" points="267 433.20083 269.239086 433 269.393195 443.985454 267.278117 444.044123"></polygon>
                    <polygon id="Path-153-Copy-30" fill="#64487C" points="267 453.20083 269.239086 453 269.393195 463.985454 267.278117 464.044123"></polygon>
                    <polygon id="Path-153-Copy-32" fill="#835DA3" points="267 473.20083 269.239086 473 269.393195 483.985454 267.278117 484.044123"></polygon>
                    <polygon id="Path-153-Copy-33" fill="#835DA3" points="267 489.20083 269.239086 489 269.393195 499.985454 267.278117 500.044123"></polygon>
                    <polygon id="Path-153-Copy-26" fill="#835DA3" points="259 411.20083 261.239086 411 261.393195 421.985454 259.278117 422.044123"></polygon>
                    <polygon id="Path-153-Copy-17" fill="#64487C" points="255 305.166759 257.239086 305 257.393195 314.121772 255.278117 314.170488"></polygon>
                    <polygon id="Path-153-Copy-3" fill="#9E7EBA" points="305.471684 159.68021 308.278117 159.68021 310.393195 225.598518 308.278117 225.959537"></polygon>
                    <polygon id="Path-153-Copy-7" fill="#8863A9" points="268 162.279532 270.239086 162 270.393195 177.290489 268.278117 177.37215"></polygon>
                    <polygon id="Path-153-Copy-11" fill="#64487C" points="261 240.166759 263.239086 240 263.393195 249.121772 261.278117 249.170488"></polygon>
                    <polygon id="Path-153-Copy-15" fill="#64487C" points="262 272.166759 264.239086 272 264.393195 281.121772 262.278117 281.170488"></polygon>
                    <polygon id="Path-153-Copy-4" fill="#9E7EBA" points="298.292867 159.581374 300.343031 159.581374 302.393195 225.598518 300.278117 225.959537"></polygon>
                    <polygon id="Path-153-Copy-8" fill="#8863A9" points="261 166.279532 263.239086 166 263.393195 181.290489 261.278117 181.37215"></polygon>
                    <polygon id="Path-153-Copy-12" fill="#64487C" points="254 244.166759 256.239086 244 256.393195 253.121772 254.278117 253.170488"></polygon>
                    <polygon id="Path-153-Copy-16" fill="#835DA3" points="255 276.166759 257.239086 276 257.393195 285.121772 255.278117 285.170488"></polygon>
                    <polygon id="Path-154" fill="#9C72C0" points="285.269965 210.181107 289.577873 210 289.758302 220.253921 285 220.577472"></polygon>
                    <polygon id="Path-155" fill="#9C72C0" points="339.786152 226.571783 343.87429 226.398137 344.349102 237.881823 340.268426 238.236576"></polygon>
                    <polygon id="Path-156" fill="#9C72C0" points="287 248.173646 291.336397 248 291.87904 258.545591 287.021706 258.379407"></polygon>
                    <polygon id="Path-157" fill="#9C72C0" points="339.145196 275.582787 339.145196 267.457342 344.408822 267.468707 344.318443 275.439913"></polygon>
                    <polygon id="Path-158" fill="#9C72C0" points="287.469754 283 292.704156 283.144498 292.704156 290.465192 287 290.519311"></polygon>
                    <polygon id="Path-159" fill="#9C72C0" points="340.552162 295.416368 345.735845 295.500902 345.735845 303.404131 340.932566 303.408105"></polygon>
                    <polygon id="Path-160" fill="#9C72C0" points="289 312.052382 289 323.122394 293.634933 323.094215 293.610367 312"></polygon>
                    <polygon id="Path-161" fill="#9C72C0" points="340.935095 342.766017 346.167548 342.786609 346.167548 331.676859 340.935095 331.709011"></polygon>
                    <polygon id="Path-162" fill="#9C72C0" points="291 352 291.003974 360.585283 295.163492 360.549518 295.207204 352.153896"></polygon>
                    <polygon id="Path-163" fill="#9C72C0" points="341.536589 364.792966 341.476259 374.534634 346.995188 374.623142 346.914267 364.605474"></polygon>
                    <polygon id="Path-164" fill="#9C72C0" points="291.06033 385.24421 291 395.061381 296.191269 395.114124 296.227034 385"></polygon>
                    <polygon id="Path-164-Copy" fill="#9C72C0" points="344.06033 399.24421 344 409.061381 349.191269 409.114124 349.227034 399"></polygon>
                    <polygon id="Path-164-Copy-2" fill="#9C72C0" points="292.06033 420.24421 292 430.061381 297.191269 430.114124 297.227034 420"></polygon>
                    <polygon id="Path-164-Copy-3" fill="#9C72C0" points="292.062248 454.147628 292 460.08224 297.356293 460.114124 297.393195 454"></polygon>
                    <polygon id="Path-164-Copy-4" fill="#9C72C0" points="346.062248 434.964914 346 443.070576 351.356293 443.114124 351.393195 434.763279"></polygon>
                    <polygon id="Path-165" fill="#9167B5" points="164.142815 513.470646 229.310381 530.392301 229.331598 560.578544 164.354987 539.980532"></polygon>
                    <polygon id="Path-166" fill="#AC86CC" points="229.271804 529.939025 249.682719 527.88096 248.909257 567.692081 229.846596 561.066539"></polygon>
                    <polygon id="Path-167" fill="#BE95E1" points="229.628638 529.98146 249.848599 527.902177 179.311161 512.448364 165.674309 513.518867"></polygon>
                    <g id="Group" transform="translate(203.000000, 256.000000)" fill="#71558A">
                        <polygon id="Path-168" points="0.194822747 14.8792159 9.44391447 11 10.0337463 28.0038663 0 31.8297105"></polygon>
                        <polygon id="Path-168-Copy-3" points="0.194822747 47.8792159 9.44391447 44 10.0337463 61.0038663 0 64.8297105"></polygon>
                        <polygon id="Path-168-Copy-6" points="1.19482275 80.8944264 10.4439145 77.7373186 11.0337463 94.7872351 1 97.8297105"></polygon>
                        <polygon id="Path-168-Copy-9" points="2.19482275 111.467564 11.4439145 109 12.0337463 126.09389 2 128.388324"></polygon>
                        <polygon id="Path-168-Copy-12" points="4.19482275 144.853722 13.4439145 143 14.0337463 160.133036 4 161.761551"></polygon>
                        <polygon id="Path-168-Copy-15" points="4.19482275 179.867542 13.4439145 178.669927 14.0337463 195.844804 4 196.761551"></polygon>
                        <polygon id="Path-168-Copy-18" points="5.19482275 217.877273 14.4439145 217.14161 15.0337463 234.345946 5 234.761551"></polygon>
                        <polygon id="Path-168-Copy" points="13.0647735 9.87921595 22.2692874 6 22.9884917 23.0038663 13 26.8297105"></polygon>
                        <polygon id="Path-168-Copy-4" points="13.0647735 42.8792159 22.2692874 39 22.9884917 56.0038663 13 59.8297105"></polygon>
                        <polygon id="Path-168-Copy-7" points="13.0647735 76.8992273 22.2692874 73.7386391 22.9884917 90.7986562 13 93.8446648"></polygon>
                        <polygon id="Path-168-Copy-10" points="15.0647735 108.474368 24.2692874 106 24.9884917 123.113636 15 125.414976"></polygon>
                        <polygon id="Path-168-Copy-13" points="16.0647735 141.863484 25.2692874 140 25.9884917 157.161368 16 158.799794"></polygon>
                        <polygon id="Path-168-Copy-16" points="16.0647735 178.719328 25.2692874 177.508788 25.9884917 194.721174 16 195.651042"></polygon>
                        <polygon id="Path-168-Copy-19" points="17.0647735 217.321912 26.2692874 216.571098 26.9884917 233.819405 17 234.250391"></polygon>
                        <polygon id="Path-168-Copy-2" points="25 3.87921595 34.1502168 0 35.0128188 17.0038663 25.0797258 20.8297105"></polygon>
                        <polygon id="Path-168-Copy-5" points="25 36.8792159 34.1502168 33 35.0128188 50.0038663 25.0797258 53.8297105"></polygon>
                        <polygon id="Path-168-Copy-8" points="25 71.8310511 34.1502168 68.6662238 35.0128188 85.7374364 25.0797258 88.7877702"></polygon>
                        <polygon id="Path-168-Copy-11" points="27 104.482655 36.1502168 102 37.0128188 119.135522 27.0797258 121.445318"></polygon>
                        <polygon id="Path-168-Copy-14" points="28 138.875375 37.1502168 137 38.0128188 154.192771 28.0797258 155.843329"></polygon>
                        <polygon id="Path-168-Copy-17" points="28 176.577872 37.1502168 175.35159 38.0128188 192.605552 28.0797258 193.551482"></polygon>
                        <polygon id="Path-168-Copy-20" points="29 215.77657 38.1502168 215.007302 39.0128188 232.304347 29.0797258 232.754161"></polygon>
                    </g>
                    <rect id="Rectangle" fill="#9A71BD" x="177" y="326" width="6" height="9"></rect>
                    <rect id="Rectangle-Copy-2" fill="#9A71BD" x="177" y="308" width="6" height="9"></rect>
                    <rect id="Rectangle-Copy" fill="#9A71BD" x="188" y="326" width="6" height="9"></rect>
                    <rect id="Rectangle-Copy-3" fill="#9A71BD" x="188" y="308" width="6" height="9"></rect>
                    <polygon id="Path-169" fill="#745290" points="113.011939 309.649304 113 333.687068 117.453086 332.8416 117.453086 308"></polygon>
                    <polygon id="Path-169-Copy-4" fill="#745290" points="113.011939 342.649304 113 366.687068 117.453086 365.8416 117.453086 341"></polygon>
                    <polygon id="Path-169-Copy-8" fill="#745290" points="115.011939 373.649304 115 395.687068 119.453086 394.8416 119.453086 372"></polygon>
                    <polygon id="Path-169-Copy-12" fill="#745290" points="117.011939 406.649304 117 428.687068 121.453086 427.8416 121.453086 405"></polygon>
                    <polygon id="Path-169-Copy-16" fill="#745290" points="120.011939 440.649304 120 462.687068 124.453086 461.8416 124.453086 439"></polygon>
                    <polygon id="Path-169-Copy-20" fill="#745290" points="121.011939 472.649304 121 494.687068 125.453086 493.8416 125.453086 471"></polygon>
                    <polygon id="Path-169-Copy" fill="#745290" points="124.011939 307.249461 124 331.287225 128.453086 330.441757 128.608287 304"></polygon>
                    <polygon id="Path-169-Copy-5" fill="#745290" points="124 338.134834 124 364.287225 128.608287 361.520615 128.608287 337"></polygon>
                    <polygon id="Path-169-Copy-9" fill="#745290" points="126 369.134834 126 395.287225 130.608287 392.520615 130.608287 368"></polygon>
                    <polygon id="Path-169-Copy-13" fill="#745290" points="127 404.134834 127 427.926925 131.608287 425.160315 131.608287 403"></polygon>
                    <polygon id="Path-169-Copy-17" fill="#745290" points="130 438.134834 130 460.201236 134.608287 459.160315 134.608287 437"></polygon>
                    <polygon id="Path-169-Copy-24" fill="#745290" points="130 504.134834 130 526.201236 134.608287 525.160315 134.608287 503"></polygon>
                    <polygon id="Path-169-Copy-21" fill="#745290" points="131 470.134834 131 492.201236 135.608287 491.160315 135.608287 469"></polygon>
                    <polygon id="Path-169-Copy-2" fill="#745290" points="136 303.229949 136 329.287225 140.453086 328.441757 140.608287 302"></polygon>
                    <polygon id="Path-169-Copy-6" fill="#745290" points="136 336.229949 136 360.189921 140.608287 359.459221 140.608287 335"></polygon>
                    <polygon id="Path-169-Copy-14" fill="#745290" points="139 404.017053 139 423.829711 143.608287 423.22549 143.608287 403"></polygon>
                    <polygon id="Path-169-Copy-18" fill="#745290" points="142 436 142 458.000545 146.608287 457.396325 146.608287 437.170835"></polygon>
                    <polygon id="Path-169-Copy-25" fill="#745290" points="142 504.16461 142 526.857903 146.608287 526.170797 146.608287 503.170835"></polygon>
                    <polygon id="Path-169-Copy-3" fill="#745290" points="148 301.348155 148 327.287225 152.453086 326.441757 152.608287 300"></polygon>
                    <polygon id="Path-169-Copy-7" fill="#745290" points="148 334.348155 148 359.96854 152.453086 359.441757 152.608287 333"></polygon>
                    <polygon id="Path-169-Copy-11" fill="#745290" points="150 365.348155 150 390.96854 154.453086 390.441757 154.608287 364"></polygon>
                    <polygon id="Path-169-Copy-15" fill="#745290" points="151 398.348155 151 423.96854 155.453086 423.441757 155.608287 397"></polygon>
                    <polygon id="Path-169-Copy-19" fill="#745290" points="154 432 154 457.620385 158.453086 457.093602 158.453086 432.955981"></polygon>
                    <polygon id="Path-169-Copy-26" fill="#745290" points="154 498 154 523.620385 158.453086 523.093602 158.453086 498.955981"></polygon>
                    <polygon id="Path-169-Copy-22" fill="#745290" points="155 464 155 489.620385 159.453086 489.093602 159.453086 464.955981"></polygon>
                    <polygon id="Path-170" fill="#D8D8D8" points="289.233502 130.377519 294.474298 127.795402 289.233502 0.041720326"></polygon>
                    <polygon id="Path-171" fill="#9F79BF" points="1 434 38.9914008 441.053791 39.0017209 447.589514 1.57998988 439.160052"></polygon>
                    <polygon id="Path-171-Copy" fill="#9F79BF" points="1 448 38.9914008 455.053791 39.0017209 461.589514 1 452.812584"></polygon>
                    <polygon id="Path-171-Copy-2" fill="#9F79BF" points="1 462 38.9914008 469.053791 39.0017209 475.589514 1.57998988 467.160052"></polygon>
                    <rect id="Rectangle-2" fill="#CFCFCF" x="0" y="495" width="1" height="30"></rect>
                    <rect id="Rectangle-2-Copy" fill="#CFCFCF" x="4" y="497" width="1" height="30"></rect>
                    <rect id="Rectangle-2-Copy-2" fill="#CFCFCF" x="8" y="499" width="1" height="30"></rect>
                    <rect id="Rectangle-2-Copy-3" fill="#CFCFCF" x="12" y="500" width="1" height="30"></rect>
                    <rect id="Rectangle-2-Copy-4" fill="#CFCFCF" x="16" y="502" width="1" height="30"></rect>
                    <rect id="Rectangle-2-Copy-5" fill="#CFCFCF" x="20" y="504" width="1" height="30"></rect>
                    <rect id="Rectangle-2-Copy-6" fill="#CFCFCF" x="24" y="505" width="1" height="30"></rect>
                    <rect id="Rectangle-2-Copy-7" fill="#CFCFCF" x="28" y="507" width="1" height="30"></rect>
                    <rect id="Rectangle-2-Copy-8" fill="#CFCFCF" x="32" y="509" width="1" height="30"></rect>
                    <rect id="Rectangle-2-Copy-9" fill="#CFCFCF" x="36" y="511" width="1" height="30"></rect>
                    <path d="M419.121368,533.410792 C419.121368,533.410792 400.960526,571.860538 385.728352,575.827411 C385.728352,581.135514 385.580283,585.346874 385.580283,585.346874 L419.909922,569.159138 L419.121368,533.410792 Z" id="Path-172" fill="#A479C9"></path>
                    <polygon id="Path-173" fill="#C5A6DF" points="843 789.238906 843.672706 770 867.546361 775.16772 867.449907 795.303156"></polygon>
                    <polygon id="Path-173-Copy" fill="#C5A6DF" points="808 782.238906 808.672706 763 832.546361 768.16772 832.449907 788.303156"></polygon>
                    <polygon id="Path-173-Copy-2" fill="#C5A6DF" points="878 798.238906 878.566987 779 898.688769 784.16772 898.607474 804.303156"></polygon>
                    <polygon id="Path-173-Copy-3" fill="#C5A6DF" points="915 807.238906 915.566987 788 935.688769 793.16772 935.607474 813.303156"></polygon>
                    <polygon id="Path-174" fill="#C5A6DF" points="808.370695 740 808 753.604235 817.947961 756.178831 818.576406 741.616001"></polygon>
                    <polygon id="Path-174-Copy" fill="#C5A6DF" points="822.370695 742 822.370695 756.816838 832.576406 758.597457 832.576406 743.616001"></polygon>
                    <polygon id="Path-174-Copy-2" fill="#C5A6DF" points="843.370695 747 843 760.604235 853.576406 762.299883 853.576406 748.616001"></polygon>
                    <polygon id="Path-174-Copy-3" fill="#C5A6DF" points="857 749.967034 857 763.604235 867.076812 765.635026 867.576406 751.616001"></polygon>
                    <polygon id="Path-174-Copy-4" fill="#C5A6DF" points="878.370695 755 878.370695 768.067245 887.843585 769.740639 887.843585 756.867782"></polygon>
                    <polygon id="Path-174-Copy-5" fill="#C5A6DF" points="891.370695 758 891.370695 771.160768 900.824152 773.033086 900.824152 759.507659"></polygon>
                    <polygon id="Path-174-Copy-6" fill="#C5A6DF" points="918 763.616001 918 775.604235 927.947961 777.70151 927.947961 765.29928"></polygon>
                    <polygon id="Path-174-Copy-7" fill="#C5A6DF" points="936.370695 766 936 779.604235 946.576406 780.615515 946.576406 767.616001"></polygon>
                    <polygon id="Path-175" fill="#C5A6DF" points="1035.89409 784 1079.3275 792.568811 1079.11727 809.820998 1035 799.766376"></polygon>
                    <polygon id="Path-175-Copy" fill="#C5A6DF" points="1092 795 1142.50034 805.250171 1142.50034 822.974794 1092 812.843401"></polygon>
                    <polygon id="Path-175-Copy-2" fill="#C5A6DF" points="1092 822.860229 1137.44212 830.299917 1137.44212 845.461574 1092 836.843401"></polygon>
                    <polygon id="Path-176" fill="#8963AA" points="794.674012 757.100071 794.834486 736.44692 785.990348 732.546844 785.942867 754.001167"></polygon>
                    <polygon id="Path-177" fill="#73528F" points="757 592 757 599.997995 761.137098 601.283646 761.07857 593.288281"></polygon>
                    <polygon id="Path-177-Copy" fill="#986FBA" points="870 561.235443 870 568.926011 874.07857 566.760144 874.07857 560"></polygon>
                    <polygon id="Path-177-Copy-2" fill="#73528F" points="852 570.596576 852 589.926011 859.140167 591.29545 859.140167 572.062027"></polygon>
                    <polygon id="Path-178" fill="#73528F" points="425 515 428.115154 515.687872 428.115154 520.095911 425.037484 520.095911"></polygon>
                    <polygon id="Path-178-Copy" fill="#986FBA" points="443.037484 516.671489 446.115154 515.687872 446.115154 520.095911 443.037484 520.817794"></polygon>
                    <polygon id="Path-179" fill="#73528F" points="553.586852 509.066716 557.738729 509.066716 557.731754 504.00608 553.573535 502.934976"></polygon>
                    <polygon id="Path-180" fill="#7A5797" points="449.92102 568.436743 459.409916 573.2848 459.542868 570.329744 450.000479 566.329253"></polygon>
                    <polygon id="Path-181" fill="#976EBB" points="459.448867 573.223517 473.364634 568.074761 473.272191 565.621909 458.992885 570.100714"></polygon>
                    <polygon id="Path-183" fill="#9167B5" points="151.704219 592.327471 162.227552 578.41428 144.673761 571.69579 135.363313 584.980186"></polygon>
                </g>
            </g>
        </g>
    </g>
</svg>