<?xml version="1.0" encoding="UTF-8" standalone="no"?>
<svg width="974px" height="334px" viewBox="0 0 974 334" version="1.1" xmlns="http://www.w3.org/2000/svg" xmlns:xlink="http://www.w3.org/1999/xlink">
    <!-- Generator: Sketch 43.2 (39069) - http://www.bohemiancoding.com/sketch -->
    <title>back</title>
    <desc>Created with Sketch.</desc>
    <defs></defs>
    <g id="Page-1" stroke="none" stroke-width="1" fill="none" fill-rule="evenodd">
        <g id="Artboard" transform="translate(-21.000000, -135.000000)" fill="#F3E7FD">
            <g id="back" transform="translate(21.000000, 135.000000)">
                <polygon id="Path-354" points="0.601229964 303.160624 0.21333691 237.792515 17.8729231 237.792515 17.7935477 243.645144 30.5454195 243.728767 30.5454195 234.004794 43.7129096 234.004794 44.3793968 229.024862 48.2622463 229.038591 48.5817607 238.752579 57.3646638 238.752579 59.8633667 236.489768 62.016345 238.780038 62.016345 244.057018 73.5425792 244.251723 73.8758228 250.28755 83.3813778 249.968036 83.7283505 234.917158 100.722525 235.055697 100.668857 189.353898 106.690956 183.832288 106.690956 170.418922 104.73393 170.418922 106.38517 168.338334 107.051657 157.503549 119.84222 136.039916 136.24105 156.696026 136.046346 167.170109 138.989374 169.376756 138.807151 182.820077 142.028505 182.820077 142.459101 276.118297 129.437639 276.354188 129.326558 254.437494 108.505698 254.411284 108.714131 313.250619 104.564188 313.250619 104.232192 277.170448 90.304607 277.378881 90.5567238 303.619006 50.7896555 303.894836 51.1091699 287.069155 21.7712531 286.749641 21.7001112 312.20346 15.5669314 312.439352 15.4957895 294.695067 4.53369795 295.014581 4.08937316 333.229009 0.840560189 333.229009"></polygon>
                <polygon id="Path-355" points="263.162546 47.4699341 258.352092 55.1576533 258.763819 65.4572669 257.083136 69.9299755 249.356817 73.487556 249.499957 83.3915255 247.497612 85.6447671 247.497612 96.7517521 244.461123 98.056091 244.461123 126.875388 245.336044 193.654004 251.97032 193.654004 251.003726 152.027739 267.201011 151.582238 268.05824 173.514753 281.492448 173.675584 281.474757 98.2667796 279.758691 92.7406283 277.479279 92.9203875 277.479279 83.7375784 275.163468 81.5150481 275.014331 73.4208822 270.575415 71.6764836 268.761754 65.216679 268.718186 54.8821088"></polygon>
                <path d="M532.325484,3.98094094 C532.325484,3.98094094 533.354011,0.889289381 536.726169,0.889289381 C540.098328,0.889289381 540.949565,3.64457508 540.949565,3.64457508 L540.949565,12.0002916 L548.644693,18.8441833 L548.307112,36.2817781 L551.831061,36.2817781 L551.614912,56.0241469 L554.681063,58.8049333 L555.206863,187.480054 L549.689005,187.856492 L549.689005,139.582527 L538.392213,139.6651 L538.392213,150.852605 L528.538029,151.082111 L528.956968,215.523495 L522.298867,215.523495 L519.720872,75.6037973 L521.314056,72.9043702 L521.205981,58.4904251 L523.663759,54.940976 L523.986768,40.9714711 L527.199851,36.4639257 L526.875628,20.5976573 L533.068646,12.1387238 L532.325484,3.98094094 Z" id="Path-356"></path>
                <polygon id="Path-357" points="587.520371 234.652894 616.486971 235.019032 616.486971 246.101413 620.541283 246.101413 620.588911 231.509462 630.23353 230.037467 630.23353 226.100736 636.373044 224.924926 636.356672 214.699844 644.084274 214.536124 644.084274 208.746376 654.822842 209.127398 654.822842 201.664726 658.47976 201.664726 663.872114 191.804294 679.87206 191.756666 680.13699 200.25673 687.51929 203.120349 687.668127 178.767686 691.208952 171.967337 691.208952 165.266708 696.290238 162.23937 712.569997 162.206626 719.322718 169.309113 719.322718 163.037135 724.335539 156.982457 728.139805 163.948015 728.27227 168.743534 731.284725 170.696272 731.026176 189.798833 734.954297 189.798833 739.266591 194.317098 747.962921 194.300898 749.644638 192.062208 756.143164 195.715701 759.547484 194.146612 773.104594 194.146612 781.062666 199.720965 781.267866 203.314286 790.317511 203.322771 790.531968 220.67686 797.085266 220.470888 797.291238 216.704767 800.300586 216.293595 800.300586 213.163132 806.809912 213.163132 806.982712 193.75164 811.072834 189.601347 820.073736 189.648171 820.757033 154.372012 823.741546 152.422915 824.089739 143.24292 838.469071 139.211209 838.469071 147.143731 842.630372 147.376732 842.630372 154.772565 846.154192 154.772565 846.037691 189.399461 849.048384 189.399461 849.048384 191.876083 857.068608 191.876083 857.3529 189.372083 861.220055 189.052369 861.220055 185.938011 867.166249 186.12576 870.845654 180.598853 874.887363 180.592255 875.094307 185.359767 882.355345 185.494131 882.515502 189.64081 889.36619 189.662334 889.36619 193.943903 937.093625 193.683264 947.54119 196.185638 947.640306 205.38997 953.501613 205.063255 953.693727 224.606247 974.010068 225.219298 973.35786 278.324696 961.265703 278.324696 961.265703 259.51712 907.564385 258.986054 907.185052 296.007732 903.308513 296.007732 903.960721 269.721178 894.262033 269.721178 894.575288 283.662278 882.051181 283.771184 882.3522 236.923557 864.741359 236.814651 864.850264 265.686788 860.946805 265.686788 860.415739 240.69119 855.560276 240.678953 856.186788 273.684596 852.853552 273.684596 852.853552 233.45939 837.86378 233.581755 837.223808 268.614994 833.686222 268.614994 833.264061 243.672013 819.335197 243.985269 819.322961 254.781576 803.919593 254.563765 803.919593 276.934624 799.593973 276.839179 799.920689 249.272682 783.872455 249.272682 783.872455 268.993104 778.742894 269.185217 778.264445 268.681163 773.81646 268.354447 773.81646 267.191489 759.264218 267.191489 759.264218 271.465444 754.461746 271.465444 754.461746 257.212739 743.710962 257.212739 743.710962 265.986608 740.398445 265.986608 740.398445 287.949821 736.738493 287.949821 736.738493 280.633675 719.64136 280.633675 719.64136 252.36849 707.135728 252.36849 707.135728 276.625178 700.817279 276.625178 700.817279 246.20408 693.424604 246.20408 693.424604 262.527207 687.523092 262.527207 687.523092 248.715725 681.008354 248.715725 681.008354 283.315079 678.32954 283.315079 678.32954 243.610332 650.814012 243.610332 650.814012 282.750021 645.582144 282.750021 645.582144 272.219857 636.117865 272.219857 636.117865 302.214689 632.25181 302.214689 632.25181 284.171319 626.847496 284.171319 626.847496 294.806104 619.358176 294.806104 619.358176 273.360942 612.63884 273.360942 612.63884 288.546263 596.591916 288.546263 596.591916 300.101802 587.469963 300.101802"></polygon>
            </g>
        </g>
    </g>
</svg>