<?xml version="1.0" encoding="utf-8"?>
<!-- Generator: Adobe Illustrator 20.0.0, SVG Export Plug-In . SVG Version: 6.00 Build 0)  -->
<svg version="1.1" xmlns="http://www.w3.org/2000/svg" xmlns:xlink="http://www.w3.org/1999/xlink" x="0px" y="0px"
	 viewBox="0 0 300 300" style="enable-background:new 0 0 300 300;" xml:space="preserve">
<style type="text/css">
	.st0{display:none;}
	.st1{fill:#EC9683;stroke:#000000;stroke-width:0.5;stroke-miterlimit:10;}
	.st2{fill:none;stroke:#000000;stroke-width:0.5;stroke-miterlimit:10;}
</style>
<g id="Layer_1" class="st0">
	
		<image style="display:inline;overflow:visible;" width="792" height="1296" xlink:href="../../Lolla-Poster.jpg"  transform="matrix(0.6808 0 0 0.6808 -167.0595 -582.3262)">
	</image>
</g>
<g id="hand1">
	<g>
		<path class="st1" d="M119.1,293.7l2.5-64.4c0,0-11.9-10.9-12.9-18.8s-9.9-71.3-9.9-71.3s-8.9-12.9-3.5-23.3
			c5.4-10.4,12.2-3.1,12.2-3.1s-1.5-10,4.8-14.3s12.7,0,12.7,0s-10.9-73.8-10.6-80.8c0.4-7.3,9.6-10.3,10.6-10
			c1.1-0.1,8.1,1.1,7.4,8.5c-0.7,6.8,11.1,86.1,16.4,92.5s11.1,8.5,16.4,1.1c5.3-7.4,9.1-97.2,10.6-99.3c0.7-2,2.6-7.4,7.9-7.4
			c8.8,0,9,6.9,9,6.9s-6.3,118.9-2.6,119.9c3.7,1.1,14.3,7.9,13.7,19.5s-2.1,47.6-5.3,52.3s-19.5,19.5-21.1,24.3
			c-1.6,4.8-1.6,67.6-1.6,67.6L119.1,293.7z"/>
		<path class="st2" d="M148.7,217.9c0,0-2.5-55.5,36-60.2c-9.9-2.3-21,8.8-29.8,9.4s-17.2-12-14-13.4c12.3-5.4,31.2-24.5,39.7-24
			c9.4,0.6,20.1,3.3,21.6,11.4"/>
		<path class="st2" d="M159.1,141.7c0,0,6.4,22-18.9,14.1"/>
		<path class="st2" d="M93.6,126.2c0,0,24.5,38.2,28,54.4c5.7,6.8,13.5,2.8,12.9-9.2c-2.2-9.2-13.8-45.7-26.9-58.6"/>
		<path class="st2" d="M119.5,173.8c0,0,4.3-17.5,15-2.4"/>
		<path class="st2" d="M125.1,98.5c0,0,24.7,40.9,23.6,63.8c-1.1,22.8-5.5,21.6-8.5,21.6c-5.7,1.2-6.8-4.7-6.8-4.7"/>
		<path class="st2" d="M132.8,168c0,0,15.9-10.5,13.2,11.9"/>
	</g>
</g>
</svg>
