<?xml version="1.0" encoding="UTF-8" standalone="no"?>
<svg width="300px" height="300px" viewBox="0 0 300 300" version="1.1" xmlns="http://www.w3.org/2000/svg" xmlns:xlink="http://www.w3.org/1999/xlink">
    <!-- Generator: Sketch 44.1 (41455) - http://www.bohemiancoding.com/sketch -->
    <title>Hand2 Copy</title>
    <desc>Created with Sketch.</desc>
    <defs></defs>
    <g id="Page-1" stroke="none" stroke-width="1" fill="none" fill-rule="evenodd">
        <g id="Hand2-Copy" stroke="#000000">
            <g id="Hand2" transform="translate(83.000000, 85.000000)">
                <path d="M36.8202651,217.053337 C36.8202651,217.053337 32.2522386,177.550106 21.9248082,166.788859 C11.5973778,156.027612 2.52607374,68.9113656 2.52607374,68.9113656 C2.52607374,68.9113656 -4.69503395,42.720484 7.48906773,37.3560476 C19.6731694,31.9916112 23.8348972,45.588855 23.8348972,45.588855 C23.8348972,45.588855 22.0963925,19.9742376 35.3116185,17.7047929 C48.5268445,15.4353481 52.5574561,22.528577 52.5574561,22.528577 C52.5574561,22.528577 50.5761434,1.83810433 63.9661911,1.83810433 C77.3562388,1.83810433 78.7256755,15.1925402 78.7256755,15.1925402 C78.7256755,15.1925402 85.3430008,0.0445631259 93.8056664,0.941333729 C102.268332,1.83810433 108.565151,11.9939505 108.565151,11.9939505 L110.038186,57.4443566 C110.038186,57.4443566 132.38299,63.8447735 133.247386,70.8667787 C134.111782,77.8887839 134.32869,126.563679 133.788038,131.86013 C133.247386,137.15658 120.585762,165.393523 107.195714,168.744272 C102.310419,184.840819 107.134203,215.968795 107.134203,215.968795 L36.8202651,217.053337 Z" id="Path-17" fill="#E3937C"></path>
                <path d="M26.7905338,55.3226554 C26.7905338,55.3226554 42.618793,99.7911843 47.5846045,106.082462 C50.2662272,112.693752 52.6477855,124.859608 45.1759499,127.093441 C37.7041143,129.327274 27.9462996,124.331905 24.5599384,118.391205 C21.1735772,112.450504 3.94068936,71.1440198 3.94068936,71.1440198 C3.94068936,71.1440198 -4.44104022,43.7649982 8.18820933,36.3512629 C20.8174589,28.9375276 26.7905338,55.3226554 26.7905338,55.3226554 Z" id="Path-18"></path>
                <path d="M71.2338182,170.270881 C71.2338182,170.270881 51.1775348,111.93969 109.524366,88.7367091 C84.3695578,99.6547468 60.7662024,109.252798 54.8544158,92.3901307 C60.7662024,83.6647716 103.958216,57.3988729 109.524366,56.9812944" id="Path-19"></path>
                <path d="M47.5398599,125.591967 C47.5398599,125.591967 47.5398599,131.721145 55.0859896,129.362686 C66.9533538,125.591967 54.396864,22.9437688 52.5761371,22.0339714" id="Path-20"></path>
                <path d="M78.4235406,13.0939586 C78.4235406,13.0939586 84.6311495,64.9185479 83.01232,70.8714561 C81.3934904,76.8243643 78.4235406,13.0939586 78.4235406,13.0939586 Z" id="Path-21"></path>
                <path d="M60.5435149,109.808643 C60.5435149,109.808643 66.7634026,119.868064 74.8819434,116.514924" id="Path-22"></path>
                <path d="M58.918058,95.1730273 C58.918058,95.1730273 82.720037,94.2674917 74.786044,76.4867769" id="Path-23"></path>
                <path d="M44.5733853,102.547553 C44.5733853,102.547553 32.4834469,101.629979 29.3914078,107.397276 C26.2993687,113.164572 37.3899042,126.267006 37.3899042,126.267006 C37.3899042,126.267006 42.3056353,128.342731 43.1495634,127.923767" id="Path-24"></path>
            </g>
        </g>
    </g>
</svg>