<?xml version="1.0" encoding="UTF-8" standalone="no"?>
<svg width="300px" height="300px" viewBox="0 0 300 300" version="1.1" xmlns="http://www.w3.org/2000/svg" xmlns:xlink="http://www.w3.org/1999/xlink">
    <!-- Generator: Sketch 44.1 (41455) - http://www.bohemiancoding.com/sketch -->
    <title>Hand3</title>
    <desc>Created with Sketch.</desc>
    <defs></defs>
    <g id="Page-1" stroke="none" stroke-width="1" fill="none" fill-rule="evenodd">
        <g id="Hand3" stroke="#000000">
            <g transform="translate(80.000000, 11.000000)">
                <path d="M65.2491505,289.922065 L64.6755911,231.010041 C64.6755911,231.010041 35.4924357,168.981045 34.3259672,145.342672 C28.7927863,123.215961 0.3107473,39.9414873 0.3107473,39.9414873 C0.3107473,39.9414873 -1.33595464,30.997819 2.95203096,29.9362959 C7.24001656,28.8747728 9.58607477,33.7147808 9.58607477,33.7147808 C9.58607477,33.7147808 40.3485663,113.058932 43.559307,113.4177 C46.7700478,113.776468 45.6311336,84.0739754 45.6311336,84.0739754 C45.6311336,84.0739754 46.8776411,80.0267505 53.9840456,80.0267505 C61.0904501,80.0267505 61.4263511,84.9567864 61.4263511,84.9567864 C61.4263511,84.9567864 63.36303,76.7010926 70.7016785,76.7010926 C78.0403271,76.7010926 79.4862757,85.2013399 79.4862757,85.2013399 C79.4862757,85.2013399 93.2764102,114.572197 93.2764102,128.487572 L91.404199,112.84394 C91.404199,112.84394 97.9555797,102.912652 97.5908122,96.0597809 C97.2260448,89.20691 106.311116,21.9411677 106.311116,7.4642544 C106.311116,3.68958158 107.081326,-2.6609105e-14 112.857248,-2.84217094e-14 C118.63317,-2.84217094e-14 118.284148,7.93186206 118.284148,7.93186206 L116.533789,112.477109 C116.533789,112.477109 129.799252,109.936172 135.897954,112.731069 C141.996656,115.525965 142.248581,183.482257 133.658177,199.418541 C125.067773,215.354825 113.430642,234.229781 113.430642,234.229781 L113.430642,289.922065 L65.2491505,289.922065 Z" id="Path-25" fill="#E3937C"></path>
                <path d="M85.2442349,222.498074 C85.2442349,222.498074 94.9924922,143.104866 125.896464,143.328074 C114.066554,139.301546 88.4010001,160.121368 88.4010001,160.121368 C88.4010001,160.121368 82.7670682,162.476342 77.4588537,157.303676 C72.1506392,152.131011 114.597987,114.321019 117.144951,114" id="Path"></path>
                <path d="M79,158.485594 C79,158.485594 91.0166971,151.718108 91.1712471,148.902323 C91.3257972,146.086538 86.6487782,142 86.6487782,142" id="Path-26"></path>
                <path d="M61.8491346,88 C61.8491346,88 90.0129564,163.181949 86.6250948,173.01897 C83.2372331,182.855991 76.051357,175.666537 76.051357,175.666537 C76.051357,175.666537 60.3876236,117.736478 52,112.773165" id="Path-27"></path>
                <path d="M80.4809422,177.948885 C80.4809422,177.948885 74.8988223,166.945616 80.4809422,166.071032 C83.1396765,165.654472 84.8299815,167.135585 85.8712211,168.801166 C87.0161061,170.632541 87.3762783,172.686936 87.3762783,172.686936" id="Path-28"></path>
            </g>
        </g>
    </g>
</svg>