<?xml version="1.0" encoding="UTF-8" standalone="no"?>
<svg width="300px" height="300px" viewBox="0 0 300 300" version="1.1" xmlns="http://www.w3.org/2000/svg" xmlns:xlink="http://www.w3.org/1999/xlink">
    <!-- Generator: Sketch 44.1 (41455) - http://www.bohemiancoding.com/sketch -->
    <title>Hand4 Copy</title>
    <desc>Created with Sketch.</desc>
    <defs></defs>
    <g id="Page-1" stroke="none" stroke-width="1" fill="none" fill-rule="evenodd">
        <g id="Hand4-Copy">
            <g id="Hand4" transform="translate(62.000000, 19.000000)">
                <path d="M101.585173,281.581392 L103.796419,267.154955 C103.796419,267.154955 118.598519,246.546468 124.539688,229.089226 C130.480857,211.631983 141.038755,166.997985 140.275493,164.708198 C139.512231,162.418411 175.30557,57.6285993 175.30557,51.2252772 C175.30557,46.8373025 178.085183,44.0708264 173.281136,36.147867 C166.250776,30.9749765 164.201213,39.9381569 164.201213,39.9381569 C164.201213,39.9381569 134.099409,131.128267 134.099409,135.930695 C134.099409,140.733124 129.086128,143.502224 129.086128,143.502224 C129.086128,143.502224 125.332065,146.370116 124.021239,133.471238 C122.710414,120.572361 144.208543,31.654447 144.208543,31.654447 C144.208543,31.654447 147.269593,14.5812757 142.419981,14.5812757 C137.570369,14.5812757 134.130373,17.036309 134.130373,17.036309 C134.130373,17.036309 103.548366,107.605657 104.78351,121.768176 C106.018654,135.930695 96.9333014,125.737515 96.9333014,125.737515 C96.9333014,125.737515 115.37038,12.0628392 113.844278,10.0295113 C112.318177,7.99618345 113.708783,0 107.646978,0 C101.585173,0 99.431095,8.09497458 99.431095,8.09497458 C99.431095,8.09497458 77.3092547,112.428728 77.7339091,119.083122 C78.1585635,125.737515 74.2570511,21.7517423 77.6498629,12.6084021 C76.2733335,3.32382693 70.7719814,4.52871278 70.7719814,4.52871278 C70.7719814,4.52871278 66.0770121,4.91315107 65.3771201,13.0580187 C64.6772281,21.2028863 52.1433315,111.880617 52.7905549,137.936812 C47.7276683,148.197847 38.3218402,146.749939 35.7504,145.126081 C33.1789597,143.502224 19.6861707,100.841459 14.2698565,98.933241 C11.1365761,95.7480294 5.89667696,92.5628177 2.04824321,95.7480294 C-1.80019053,98.933241 0.955417058,102.707675 0.955417058,102.707675 C0.955417058,102.707675 17.0385277,152.524537 17.0385277,167.788088 C17.0385277,186.809068 30.9680061,239.942479 49.1526804,248.694237 C49.1526804,257.696003 49.5464048,282.440753 49.5464048,282.440753 L101.585173,281.581392 Z" id="Path-29" stroke="#000000" fill="#C66E34"></path>
                <path d="M58,161 C58,161 74.9232151,166.993357 74.0233673,235.380096" id="Path-30" stroke="#000000"></path>
                <path d="M97.1736805,124.712905 C93.1038292,121.188578 85.1839046,116.857691 78.3878263,118.118129 C77.6875896,115.596604 77.9515949,115.192724 79.0503002,114.053536 C84.858092,113.530727 94.9750134,116.929834 97.0907282,120.198789 C98.1234078,121.749395 98.4380959,122.833555 97.1736805,124.712905 Z" id="Path-31" fill="#D4E158"></path>
            </g>
        </g>
    </g>
</svg>